<svg width="30" height="31" viewBox="0 0 30 31" fill="none" xmlns="http://www.w3.org/2000/svg">
<path d="M0 15.7207C0 7.43643 6.71573 0.720703 15 0.720703C23.2843 0.720703 30 7.43643 30 15.7207C30 24.005 23.2843 30.7207 15 30.7207C6.71573 30.7207 0 24.005 0 15.7207Z" fill="#5367FF"/>
<path d="M23.5414 20.0647C23.9397 20.7546 23.4418 21.6164 22.6453 21.6164H17.52C16.7241 21.6164 16.2263 20.7546 16.6246 20.0647L19.1868 15.6268C19.5851 14.9369 20.5808 14.9369 20.9784 15.6268L23.5414 20.0647Z" fill="white"/>
<path d="M18.026 10.5108C18.4016 11.1619 18.4016 11.9643 18.026 12.6154L13.4264 20.5815C13.0566 21.2216 12.3738 21.616 11.6342 21.616H7.35465C6.5581 21.616 6.06026 20.7542 6.45853 20.0643L14.104 6.82161C14.5023 6.13238 15.498 6.13238 15.8962 6.82161L18.026 10.5108Z" fill="white"/>
<path d="M18.1679 25.137H11.8317C11.546 25.137 11.3145 24.9054 11.3145 24.6198C11.3145 24.3341 11.546 24.1025 11.8317 24.1025H18.1679C18.4536 24.1025 18.6852 24.3341 18.6852 24.6198C18.6852 24.9054 18.4536 25.137 18.1679 25.137Z" fill="white"/>
</svg>
