<svg width="30" height="31" viewBox="0 0 30 31" fill="none" xmlns="http://www.w3.org/2000/svg">
<path d="M0 15.7207C0 7.43643 6.71573 0.720703 15 0.720703C23.2843 0.720703 30 7.43643 30 15.7207C30 24.005 23.2843 30.7207 15 30.7207C6.71573 30.7207 0 24.005 0 15.7207Z" fill="#5367FF"/>
<path d="M15.0023 10.8634L18.3418 14.2026L20.1636 12.3815L15.0023 7.2207L9.84106 12.3815L11.6628 14.2026L15.0023 10.8634Z" fill="#F1F2F2"/>
<path d="M15.0023 20.5775L11.6628 17.2383L9.84106 19.0594L15.0023 24.2202L20.1636 19.0594L18.3418 17.2383L15.0023 20.5775Z" fill="#F1F2F2"/>
<path d="M13.178 15.7207L14.9996 13.8993L16.8211 15.7207L14.9996 17.5421L13.178 15.7207Z" fill="#F1F2F2"/>
<path d="M19.8567 15.7217L21.6783 13.9003L23.4999 15.7217L21.6783 17.5431L19.8567 15.7217Z" fill="#F1F2F2"/>
<path d="M6.50024 15.7197L8.32183 13.8983L10.1434 15.7197L8.32183 17.5411L6.50024 15.7197Z" fill="#F1F2F2"/>
</svg>
