<svg width="30" height="31" viewBox="0 0 30 31" fill="none" xmlns="http://www.w3.org/2000/svg">
<path fill-rule="evenodd" clip-rule="evenodd" d="M13.9579 16.5102H16.8C18.1264 16.5102 18.9158 17.3944 18.8842 18.6575C18.8842 19.5733 18.4736 20.3944 17.7157 20.7102C17.4316 20.8364 17.021 20.868 16.6737 20.868H13.9579L13.9579 16.5102ZM17.4947 10.7628C18.0631 11.0786 18.3473 11.7102 18.3473 12.4364C18.3473 13.5733 17.6842 14.3628 16.5474 14.3628H13.9578L13.9578 10.5417H16.2316C16.7368 10.5417 17.1789 10.6049 17.4947 10.7628ZM16.9263 23.0469C16.9263 24.5207 16.9263 25.2575 16.9263 25.2575C16.9263 25.2575 16.4316 25.2575 15.4421 25.2575L15.4421 23.0469H13.8947C13.8947 24.5207 13.8947 25.2575 13.8947 25.2575C13.8947 25.2575 13.4 25.2575 12.4105 25.2575L12.4105 23.0469C10.4316 23.0469 9.44208 23.0469 9.44208 23.0469C9.44208 23.0469 9.44208 22.3733 9.44208 21.026H10.3579C10.8315 21.026 11.1789 20.647 11.1789 20.2049L11.1789 11.2681C11.1789 10.7944 10.8 10.4471 10.3579 10.4471C9.74735 10.4471 9.44207 10.4471 9.44207 10.4471C9.44207 10.4471 9.44207 9.77339 9.44207 8.42599H12.4105C12.4105 6.95231 12.4105 6.21547 12.4105 6.21547C12.4105 6.21547 12.9053 6.21547 13.8947 6.21547L13.8947 8.42599H15.4421C15.4421 6.95231 15.4421 6.21547 15.4421 6.21547C15.4421 6.21547 15.9368 6.21547 16.9263 6.21547L16.9263 8.45752C17.6842 8.48913 18.2842 8.58389 18.8842 8.83653C20.2105 9.34175 21.1264 10.5733 21.1264 12.2155C21.1264 13.605 20.4947 14.7418 19.3263 15.3417C20.9684 15.8786 21.6947 17.2996 21.6947 18.847C21.6632 20.8364 20.3368 22.2891 18.7579 22.7944C18.1264 22.9838 17.5579 23.0469 16.9263 23.0469ZM8.93513e-07 15.7207C1.38635e-06 23.9943 6.72626 30.7207 15 30.7207C23.2737 30.7207 30 23.9943 30 15.7207C30 7.44702 23.2737 0.720703 15 0.720703C6.72625 0.720703 4.00671e-07 7.44702 8.93513e-07 15.7207Z" fill="#5367FF"/>
</svg>
