<svg width="30" height="31" viewBox="0 0 30 31" fill="none" xmlns="http://www.w3.org/2000/svg">
<path d="M0 15.7207C0 7.43643 6.71573 0.720703 15 0.720703C23.2843 0.720703 30 7.43643 30 15.7207C30 24.005 23.2843 30.7207 15 30.7207C6.71573 30.7207 0 24.005 0 15.7207Z" fill="#5367FF"/>
<path fill-rule="evenodd" clip-rule="evenodd" d="M13.8793 16.6832L16.1493 16.0749C17.2086 15.7911 18.0284 16.3284 18.2735 17.344C18.4695 18.0754 18.3172 18.8191 17.7795 19.2335C17.5796 19.3952 17.2584 19.5082 16.981 19.5826L14.8119 20.1638L13.8793 16.6832ZM15.4742 11.3359C15.9957 11.4665 16.3579 11.9101 16.5133 12.4901C16.7566 13.3981 16.3959 14.1706 15.4879 14.4139L13.4197 14.9681L12.6019 11.9162L14.418 11.4296C14.8215 11.3215 15.1882 11.2773 15.4742 11.3359ZM17.6491 21.2688C17.9645 22.4459 18.1222 23.0344 18.1222 23.0344C18.1222 23.0344 17.7271 23.1403 16.9367 23.3521L16.4636 21.5865L15.2278 21.9176C15.5432 23.0947 15.7009 23.6832 15.7009 23.6832C15.7009 23.6832 15.3057 23.7891 14.5155 24.0009L14.0424 22.2353C12.4618 22.6588 11.6715 22.8705 11.6715 22.8705C11.6715 22.8705 11.5273 22.3325 11.239 21.2564L11.9704 21.0604C12.3487 20.9591 12.5451 20.582 12.4504 20.2289L10.5379 13.0911C10.4365 12.7127 10.0595 12.5164 9.70643 12.611C9.21877 12.7417 8.97495 12.807 8.97495 12.807C8.97495 12.807 8.83077 12.269 8.54241 11.1928L10.9133 10.5575C10.5979 9.38048 10.4402 8.79196 10.4402 8.79196C10.4402 8.79196 10.8354 8.68608 11.6257 8.47433L12.0987 10.2399L13.3346 9.90873C13.0192 8.7317 12.8615 8.14318 12.8615 8.14318C12.8615 8.14318 13.2567 8.0373 14.047 7.82553L14.5268 9.61626C15.1389 9.47932 15.6384 9.4266 16.1717 9.49997C17.3391 9.61964 18.3342 10.4073 18.6856 11.7189C18.983 12.8287 18.7218 13.8718 17.917 14.6011C19.3434 14.6785 20.2276 15.658 20.5588 16.8939C20.9594 18.4896 20.2109 19.9337 19.0579 20.6751C18.5941 20.9616 18.1536 21.1337 17.6491 21.2688Z" fill="white"/>
</svg>
