<svg width="30" height="31" viewBox="0 0 30 31" fill="none" xmlns="http://www.w3.org/2000/svg">
<path d="M0 15.7207C0 7.43643 6.71573 0.720703 15 0.720703C23.2843 0.720703 30 7.43643 30 15.7207C30 24.005 23.2843 30.7207 15 30.7207C6.71573 30.7207 0 24.005 0 15.7207Z" fill="#5367FF"/>
<path fill-rule="evenodd" clip-rule="evenodd" d="M14.2589 26.7837C14.3572 26.3404 14.9302 26.1249 15.3078 26.3603C15.5573 26.4676 15.6302 26.7472 15.6943 26.9849C15.66 27.1086 15.6294 27.2325 15.5993 27.3563C15.4448 27.5398 15.2461 27.7233 14.9888 27.7167C14.5106 27.7728 14.0793 27.2315 14.2589 26.7837ZM8.22049 26.4399C8.31984 26.1403 8.56054 25.8425 8.91277 25.9204C9.4262 25.9569 9.57859 26.7319 9.12922 26.9707C8.72511 27.2436 8.25629 26.8699 8.22049 26.4399ZM20.7368 26.7682C20.4873 26.3902 20.781 25.9347 21.1862 25.8485C21.5119 25.9149 21.8564 26.1602 21.7879 26.5384C21.7404 27.0502 20.9929 27.2072 20.7368 26.7682ZM19.1601 22.8647C19.721 22.5176 20.5181 23.0162 20.4651 23.6699C20.4795 24.3532 19.5785 24.7908 19.0563 24.342C18.5506 23.9902 18.6124 23.1445 19.1601 22.8647ZM10.0931 22.8559C10.6385 22.5685 11.3705 23.0649 11.3208 23.6762C11.3374 24.1781 10.8482 24.6059 10.3536 24.5317C9.94392 24.5229 9.67676 24.1551 9.54539 23.8054C9.55213 23.4242 9.7088 22.9997 10.0931 22.8559ZM14.5692 21.8102C15.2096 21.5272 16.0255 22.0855 15.9648 22.7919C16.0123 23.5724 15.0032 24.1129 14.377 23.6442C13.6815 23.2417 13.7975 22.0577 14.5692 21.8102ZM4.9049 20.7499C5.39408 20.4238 6.09802 20.9102 5.98805 21.4829C5.92956 21.9894 5.29241 22.2789 4.87274 21.9915C4.42233 21.7306 4.43893 20.9877 4.9049 20.7499ZM24.0944 21.6289C23.8415 21.1568 24.3009 20.5311 24.8243 20.6185C25.0848 20.6141 25.2671 20.8197 25.4338 20.9921C25.4681 21.2719 25.5255 21.6056 25.2936 21.8212C24.9788 22.2203 24.2655 22.1064 24.0944 21.6289ZM20.7467 18.2663C21.3925 17.9954 22.1853 18.5549 22.1356 19.2568C22.1615 20.0295 21.1828 20.5624 20.5512 20.1114C19.8358 19.7064 19.9661 18.5147 20.7467 18.2663ZM8.76934 18.2339C9.49364 18.1102 10.1727 18.9194 9.87895 19.6081C9.6647 20.342 8.59815 20.5411 8.12661 19.9416C7.57348 19.3659 7.98641 18.3134 8.76934 18.2339ZM16.6438 17.5794C17.6906 17.2864 18.8322 18.163 18.8156 19.251C18.8708 20.3056 17.8131 21.2264 16.7795 21.0172C15.8068 20.8912 15.0892 19.8211 15.3607 18.8759C15.4978 18.246 16.0233 17.7338 16.6438 17.5794ZM12.5597 17.5816C13.591 17.313 14.6996 18.1742 14.7061 19.2376C14.7734 20.3121 13.6815 21.265 12.6259 21.0168C11.8099 20.8852 11.1696 20.0981 11.196 19.2724C11.1938 18.4826 11.789 17.7486 12.5597 17.5816ZM27.0886 15.2126C27.3646 15.0159 27.8074 15.1573 27.9167 15.4802C28.1022 15.8328 27.7621 16.3159 27.3658 16.2563C26.8094 16.3071 26.6294 15.458 27.0886 15.2126ZM2.37753 15.2225C2.76945 15.0512 3.25422 15.3913 3.16474 15.8272C3.14374 16.3207 2.41619 16.5104 2.1489 16.0981C1.91274 15.8117 2.0541 15.3702 2.37753 15.2225ZM23.2376 15.8438C23.2188 15.3033 23.6137 14.8246 24.1672 14.7947C24.6133 14.8655 25.0471 15.2259 25.0118 15.7123C25.0527 16.3546 24.2797 16.7912 23.7332 16.4894C23.4771 16.359 23.3457 16.0959 23.2376 15.8438H23.2376ZM5.58056 14.9052C6.23199 14.6585 6.95409 15.3784 6.69017 16.0251C6.52898 16.6143 5.69975 16.8321 5.27139 16.3977C4.77015 15.9898 4.95574 15.0821 5.58056 14.9052ZM18.6025 14.0325C19.3356 13.8225 20.1969 14.1055 20.591 14.7743C21.1121 15.5393 20.8634 16.6802 20.0876 17.1733C19.275 17.7459 18.0162 17.4452 17.569 16.5499C17.0269 15.6238 17.5724 14.315 18.6025 14.0325ZM10.431 14.0364C11.1852 13.8286 12.0475 14.1846 12.4173 14.8787C12.8225 15.5774 12.6569 16.5481 12.0276 17.0606C11.2206 17.8123 9.73214 17.5104 9.3026 16.4846C8.80902 15.5442 9.40856 14.2839 10.431 14.0364ZM20.612 11.2663C21.2568 10.8904 22.1522 11.4376 22.1235 12.1794C22.1678 12.9654 21.1768 13.5193 20.5347 13.0582C19.8678 12.6743 19.9198 11.5932 20.612 11.2663ZM7.87047 12.0542C7.93233 11.5291 8.42696 11.1874 8.92599 11.1521C9.46369 11.2171 9.89321 11.6352 9.9517 12.1802C9.91642 12.7197 9.50012 13.2469 8.92924 13.2437C8.30116 13.2978 7.75051 12.6721 7.87047 12.0542ZM12.1843 10.5773C12.9981 10.1926 14.0933 10.5154 14.4864 11.349C14.949 12.1604 14.5913 13.2903 13.7643 13.7093C12.9362 14.1802 11.768 13.8232 11.3672 12.952C10.9179 12.1095 11.3169 10.9652 12.1843 10.5773ZM16.4925 10.4899C17.2268 10.2258 18.0989 10.5419 18.5175 11.1974C19.0695 11.9989 18.7758 13.2194 17.9191 13.6793C17.0314 14.2232 15.7351 13.7621 15.4073 12.7694C15.0351 11.8807 15.5773 10.7685 16.4925 10.4899ZM24.3246 9.46848C24.7696 9.1225 25.5039 9.51938 25.4508 10.082C25.4806 10.595 24.8458 10.9819 24.4041 10.7177C23.9177 10.4987 23.868 9.74925 24.3246 9.46848ZM4.9071 9.46952C5.43156 9.14666 6.13913 9.73588 5.94058 10.3064C5.83125 10.7999 5.16881 11.0007 4.79012 10.6856C4.38589 10.3904 4.44995 9.68069 4.9071 9.46952ZM13.9496 8.6416C13.944 8.07342 14.4608 7.65004 15.0001 7.61134C15.3577 7.68315 15.7476 7.83576 15.901 8.19718C16.187 8.69576 15.933 9.38224 15.4164 9.61108C15.1801 9.74367 14.9007 9.69393 14.6434 9.67848C14.2501 9.48511 13.9188 9.10589 13.9496 8.6416ZM18.7493 7.42549C19.0055 6.76445 20.0434 6.74445 20.3349 7.38796C20.6231 7.88873 20.2686 8.50887 19.7552 8.67912C19.0751 8.80627 18.4291 8.07003 18.7493 7.42549ZM9.9849 7.03965C10.559 6.67602 11.3783 7.21757 11.29 7.88537C11.2601 8.55964 10.3658 8.9503 9.86117 8.49446C9.37329 8.1364 9.44721 7.31498 9.9849 7.03965ZM21.0548 5.52081C20.5181 5.45588 20.4332 4.61094 20.9499 4.44081C21.3506 4.2451 21.7183 4.61212 21.7769 4.9925C21.6929 5.31731 21.4213 5.61472 21.0548 5.52081ZM8.60139 4.44809C8.9448 4.30653 9.37951 4.62159 9.3445 4.9964C9.38095 5.40329 8.88411 5.70277 8.53408 5.50939C8.07032 5.32952 8.12336 4.57562 8.60139 4.44809ZM14.6818 3.79172C15.2471 3.49653 15.9372 4.18133 15.6368 4.74692C15.4624 5.20796 14.801 5.33056 14.4631 4.97912C14.1052 4.64185 14.2219 3.97522 14.6818 3.79172Z" fill="white"/>
</svg>
