<svg width="30" height="31" viewBox="0 0 30 31" fill="none" xmlns="http://www.w3.org/2000/svg">
<path d="M0 15.7207C0 7.43643 6.71573 0.720703 15 0.720703C23.2843 0.720703 30 7.43643 30 15.7207C30 24.005 23.2843 30.7207 15 30.7207C6.71573 30.7207 0 24.005 0 15.7207Z" fill="#5367FF"/>
<path fill-rule="evenodd" clip-rule="evenodd" d="M8.33105 23.2007C6.73302 23.6064 4.65557 23.7785 5.15957 21.6765C5.2702 21.1847 5.54064 20.607 5.90941 19.9678C6.48716 21.197 7.31077 22.2911 8.33105 23.2007ZM16.0999 9.61745C16.0999 10.4902 16.8006 11.1909 17.6734 11.1909C18.5339 11.1909 19.2468 10.4902 19.2468 9.61745C19.2468 8.75697 18.5339 8.044 17.6734 8.044C16.8006 8.044 16.0999 8.75697 16.0999 9.61745ZM17.6734 10.6131C17.1202 10.6131 16.6654 10.1706 16.6654 9.61745C16.6654 9.06428 17.1202 8.62175 17.6734 8.62175C18.2266 8.62175 18.6691 9.06428 18.6691 9.61745C18.6691 10.1706 18.2266 10.6131 17.6734 10.6131ZM11.6746 13.0717C12.2032 13.0717 12.6334 12.6414 12.6334 12.1128C12.6334 11.5843 12.2032 11.154 11.6746 11.154C11.146 11.154 10.7158 11.5843 10.7158 12.1128C10.7158 12.6414 11.146 13.0717 11.6746 13.0717ZM11.6746 11.7195C11.8959 11.7195 12.068 11.8916 12.068 12.1128C12.068 12.3218 11.8959 12.4939 11.6746 12.4939C11.4657 12.4939 11.2936 12.3218 11.2936 12.1128C11.2936 11.8916 11.4657 11.7195 11.6746 11.7195ZM13.875 15.8498C13.875 16.3784 14.3052 16.8086 14.8338 16.8086C15.3624 16.8086 15.7926 16.3784 15.7926 15.8498C15.7926 15.3212 15.3624 14.891 14.8338 14.891C14.3052 14.891 13.875 15.3212 13.875 15.8498ZM15.2149 15.8498C15.2149 16.0587 15.0428 16.2308 14.8338 16.2308C14.6248 16.2308 14.4527 16.0587 14.4527 15.8498C14.4527 15.6408 14.6248 15.4564 14.8338 15.4564C15.0428 15.4564 15.2149 15.6408 15.2149 15.8498ZM8.99485 23.004C6.80677 21.2093 5.54064 18.5541 5.54064 15.7146C5.54064 14.6082 5.73732 13.5019 6.13068 12.4447C8.06061 15.2843 11.5025 18.3943 14.4036 20.3734C12.7441 21.4183 10.8633 22.414 8.99485 23.004ZM14.9567 20.017C11.8344 17.8903 8.38022 14.891 6.38882 11.8055C7.9131 8.46194 11.2813 6.29845 14.969 6.29845C17.3784 6.29845 19.7877 7.2204 21.6316 9.05199C22.5167 9.94935 23.1928 10.9696 23.6476 12.0637C23.0575 12.9364 22.2585 13.883 21.312 14.8541C21.103 14.7066 20.8572 14.6328 20.5867 14.6328C19.8492 14.6328 19.2468 15.2351 19.2468 15.9727C19.2468 16.2063 19.3083 16.4398 19.4189 16.6365C19.0993 16.9192 18.7551 17.2143 18.3987 17.497C17.3292 18.3698 16.1614 19.2302 14.9567 20.017ZM24.0286 11.4859C23.5492 10.4656 22.8854 9.49452 22.0373 8.64633C21.8775 8.49882 21.7176 8.33902 21.5578 8.2038C22.2954 7.99483 22.9469 7.90878 23.4878 7.92107C24.0655 7.94566 24.4835 8.10546 24.717 8.41277C25.0858 8.90448 24.9383 9.77725 24.3728 10.8713C24.2745 11.0803 24.1516 11.2769 24.0286 11.4859ZM15.473 20.3611C16.6285 19.599 17.7226 18.7754 18.7551 17.9395C19.1239 17.6445 19.4681 17.3495 19.8123 17.0544C20.0213 17.2142 20.2917 17.3003 20.5867 17.3003C21.3243 17.3003 21.9143 16.698 21.9143 15.9727C21.9143 15.7023 21.8406 15.4687 21.7176 15.2597C22.5781 14.3747 23.3034 13.5142 23.8934 12.7152C24.2253 13.6863 24.3851 14.7066 24.3851 15.7146C24.3851 18.1362 23.4632 20.5455 21.6316 22.3771C21.3612 22.6476 21.0784 22.8934 20.7834 23.127C18.9395 22.4755 17.1079 21.4429 15.473 20.3611ZM4.92601 23.422C5.6021 24.1473 7.01574 24.1841 8.87192 23.6433C10.6543 25.02 12.8178 25.7207 14.969 25.7207C17.0465 25.7207 19.1362 25.0692 20.894 23.7662C22.8486 24.3931 24.336 24.3685 24.9875 23.5326C25.8725 22.4263 24.8522 20.4964 24.2253 19.4761C24.717 18.2714 24.9629 16.993 24.9629 15.7146C24.9629 14.4976 24.7416 13.2806 24.2991 12.1374C24.5204 11.7932 24.717 11.4613 24.8768 11.1417C25.5529 9.83871 25.6881 8.75697 25.1719 8.06858C24.8277 7.61376 24.2622 7.3802 23.5124 7.35561C22.824 7.33103 21.9758 7.46625 21.017 7.76127C19.2345 6.39679 17.0956 5.7207 14.969 5.7207C12.9162 5.7207 10.8633 6.34762 9.11777 7.61376C8.18354 7.30644 7.34764 7.14664 6.67155 7.15893C3.65988 7.2204 4.69245 10.0477 5.74961 11.8424C5.23332 13.0839 4.96289 14.3993 4.96289 15.7146C4.96289 16.9438 5.19645 18.1731 5.63898 19.3286C5.1104 20.1399 4.75391 20.902 4.6064 21.5535C4.4466 22.205 4.45889 22.9057 4.92601 23.422ZM9.53572 23.422C11.4288 22.7582 13.2481 21.7994 14.9199 20.7299C16.5425 21.7871 18.4232 22.8442 20.2302 23.5326C18.6445 24.6021 16.8006 25.143 14.969 25.143C13.0637 25.143 11.1583 24.5652 9.53572 23.422ZM19.8246 15.9727C19.8246 15.5425 20.1565 15.2106 20.5867 15.2106C21.0047 15.2106 21.3489 15.5425 21.3489 15.9727C21.3489 16.3906 21.0047 16.7225 20.5867 16.7225C20.1565 16.7225 19.8246 16.3906 19.8246 15.9727ZM8.56461 8.03171C7.51974 8.91677 6.64697 9.99852 6.03234 11.2155C5.22103 9.78954 4.48348 7.77356 6.68385 7.72439C7.20013 7.72439 7.83935 7.82273 8.56461 8.03171ZM22.0373 22.7828C22.8363 21.9838 23.4755 21.0864 23.9426 20.1153C24.3605 20.8406 25.1473 22.414 24.5449 23.1884C24.0778 23.7662 22.9592 23.7785 21.4349 23.3359C21.6439 23.1639 21.8406 22.9795 22.0373 22.7828Z" fill="white"/>
</svg>
