<svg width="30" height="31" viewBox="0 0 30 31" fill="none" xmlns="http://www.w3.org/2000/svg">
<path d="M0 15.7207C0 7.43643 6.71573 0.720703 15 0.720703C23.2843 0.720703 30 7.43643 30 15.7207C30 24.005 23.2843 30.7207 15 30.7207C6.71573 30.7207 0 24.005 0 15.7207Z" fill="#5367FF"/>
<path fill-rule="evenodd" clip-rule="evenodd" d="M16.6817 24.1567H8.92872H6.65603V20.1501H8.92872V11.2884H6.64355V7.28467H8.92872H16.6817C18.3698 7.28467 23.3565 9.13566 23.3565 15.7207C23.3565 22.3057 19.2129 24.1567 16.6817 24.1567ZM13.7303 11.2781V20.1392C14.4437 20.1392 15.0813 20.1392 15.6432 20.1392C16.4859 20.1392 18.0619 18.5845 18.0619 15.7207C18.0619 12.8568 16.5765 11.2781 15.6432 11.2781C15.0209 11.2781 14.3833 11.2781 13.7303 11.2781Z" fill="white"/>
</svg>
