<svg width="30" height="31" viewBox="0 0 30 31" fill="none" xmlns="http://www.w3.org/2000/svg">
<path d="M0 15.7207C0 7.43643 6.71573 0.720703 15 0.720703C23.2843 0.720703 30 7.43643 30 15.7207C30 24.005 23.2843 30.7207 15 30.7207C6.71573 30.7207 0 24.005 0 15.7207Z" fill="#5367FF"/>
<path fill-rule="evenodd" clip-rule="evenodd" d="M8.75 15.7207L15 5.7207V13.0282L8.75 15.7207ZM20.9375 15.7207L15 13.0317V5.7207L20.9375 15.7207Z" fill="white"/>
<path fill-rule="evenodd" clip-rule="evenodd" d="M15 20.1724L8.75 16.4224L15 13.7207V20.1724Z" fill="white"/>
<path fill-rule="evenodd" clip-rule="evenodd" d="M15 20.1724L21.25 16.4224L15 13.7207V20.1724Z" fill="white"/>
<path fill-rule="evenodd" clip-rule="evenodd" d="M8.75 17.2832L15 20.8911V25.7207L8.75 17.2832ZM20.9375 17.2832L15 25.7207V20.8911L20.9375 17.2832Z" fill="white"/>
<path fill-rule="evenodd" clip-rule="evenodd" d="M20.9375 15.7207L15 13.0317V5.7207L20.9375 15.7207Z" fill="white"/>
<path fill-rule="evenodd" clip-rule="evenodd" d="M20.9375 17.2832L15 20.8907V25.7207L20.9375 17.2832Z" fill="white"/>
</svg>
