<svg width="30" height="31" viewBox="0 0 30 31" fill="none" xmlns="http://www.w3.org/2000/svg">
<path d="M0 15.7207C0 7.43643 6.71573 0.720703 15 0.720703V0.720703C23.2843 0.720703 30 7.43643 30 15.7207V15.7207C30 24.005 23.2843 30.7207 15 30.7207V30.7207C6.71573 30.7207 0 24.005 0 15.7207V15.7207Z" fill="#5367FF"/>
<path d="M21.1286 6.72421C20.8109 6.72557 20.4978 6.80003 20.2135 6.94182C19.9292 7.08362 19.6813 7.28895 19.4891 7.54191L15 13.7414L10.5108 7.54055L10.5006 7.5276C10.2407 7.18647 9.88021 6.93553 9.47007 6.81016C9.05992 6.6848 8.62077 6.69134 8.21454 6.82886C7.80831 6.96638 7.45549 7.22794 7.20583 7.57666C6.95617 7.92538 6.82227 8.34367 6.823 8.77254V21.0339C6.82371 21.4636 6.9595 21.8822 7.21116 22.2305C7.46282 22.5788 7.81761 22.8392 8.22535 22.9748C8.63309 23.1104 9.07315 23.1144 9.48329 22.9862C9.89342 22.858 10.2529 22.6041 10.5108 22.2604L14.1818 16.8819L19.4973 23.9111C19.7568 24.2528 20.117 24.5044 20.5271 24.6304C20.9372 24.7564 21.3766 24.7504 21.7831 24.6133C22.1897 24.4762 22.5429 24.2149 22.793 23.8663C23.0431 23.5177 23.1774 23.0993 23.1769 22.6703V8.77254C23.1762 8.22951 22.9602 7.70893 22.5762 7.32495C22.1922 6.94097 21.6716 6.72493 21.1286 6.72421ZM9.41783 21.4468C9.33097 21.5608 9.21059 21.6448 9.07358 21.6869C8.93658 21.729 8.78983 21.7272 8.65394 21.6816C8.51804 21.6361 8.39982 21.5491 8.31586 21.4329C8.23191 21.3168 8.18644 21.1772 8.18583 21.0339V10.4089C8.18593 10.2661 8.23063 10.1269 8.31367 10.0107C8.39672 9.89458 8.51397 9.80725 8.64905 9.76095C8.78413 9.71464 8.9303 9.71168 9.06715 9.75247C9.204 9.79326 9.32469 9.87577 9.41237 9.98847L13.3409 15.7234L9.41783 21.4468ZM21.8141 21.0339C21.8139 21.2157 21.7416 21.3899 21.6131 21.5184C21.4846 21.6469 21.3104 21.7192 21.1286 21.7194C21.0256 21.7202 20.9237 21.6975 20.8307 21.653C20.7378 21.6085 20.6563 21.5433 20.5923 21.4625L15.8408 14.9053L20.5821 8.35961C20.669 8.2456 20.7893 8.16165 20.9264 8.11955C21.0634 8.07744 21.2101 8.0793 21.346 8.12484C21.4819 8.17039 21.6001 8.25735 21.6841 8.37352C21.768 8.48968 21.8135 8.62922 21.8141 8.77254V21.0339Z" fill="white"/>
</svg>
