<svg width="30" height="31" viewBox="0 0 30 31" fill="none" xmlns="http://www.w3.org/2000/svg">
<path d="M0 15.7207C0 7.43643 6.71573 0.720703 15 0.720703C23.2843 0.720703 30 7.43643 30 15.7207C30 24.005 23.2843 30.7207 15 30.7207C6.71573 30.7207 0 24.005 0 15.7207Z" fill="#5367FF"/>
<path d="M14.6614 26.7107C14.6012 26.7032 14.5485 26.6882 14.4883 26.6882C13.6832 26.6204 12.9157 26.4398 12.2084 26.041C11.8999 25.868 11.6215 25.6498 11.4033 25.3714C11.2452 25.1682 11.1173 24.9425 11.0647 24.6942C10.9969 24.3631 11.0421 24.047 11.2001 23.7536C11.3656 23.4376 11.5989 23.1968 11.8848 22.9861C12.2761 22.7002 12.705 22.5045 13.164 22.3691C13.6681 22.2186 14.1873 22.1358 14.7065 22.1132C15.4966 22.0756 16.2716 22.1734 17.0241 22.4293C17.4755 22.5798 17.8969 22.798 18.2581 23.1065C18.4537 23.272 18.6268 23.4677 18.7547 23.6934C19.0105 24.1524 19.0181 24.6189 18.7697 25.0854C18.5967 25.4165 18.3333 25.6648 18.0399 25.8755C17.611 26.1765 17.1369 26.3646 16.6403 26.5C16.249 26.6054 15.8502 26.6656 15.4514 26.6957C15.4138 26.6957 15.3762 26.7107 15.3386 26.7183C15.1204 26.7107 14.8946 26.7107 14.6614 26.7107Z" fill="white"/>
<path d="M4.64648 12.9333C4.66153 12.3991 4.76688 11.8874 4.93994 11.3833C5.28607 10.375 5.84288 9.48709 6.6179 8.74969C6.99413 8.39604 7.4155 8.09506 7.89707 7.90694C8.1529 7.80913 8.40873 7.74141 8.67961 7.74141C9.21385 7.73388 9.63523 7.94457 9.92868 8.39604C10.1168 8.68197 10.2071 8.998 10.2447 9.3366C10.32 9.99876 10.2221 10.6383 10.0115 11.2629C9.66532 12.3013 9.10851 13.2117 8.31091 13.9642C7.93469 14.3253 7.51332 14.6188 7.02422 14.8144C6.73829 14.9273 6.44484 14.9875 6.13634 14.9725C5.66982 14.9499 5.30112 14.7467 5.03776 14.3705C4.84212 14.0921 4.73678 13.7836 4.69163 13.4525C4.66906 13.2794 4.66153 13.1064 4.64648 12.9333Z" fill="white"/>
<path d="M4.6543 18.5605C4.66182 18.0865 4.70697 17.7178 4.85746 17.3717C4.9327 17.1986 5.03052 17.0331 5.15844 16.8901C5.45942 16.559 5.84317 16.4236 6.27959 16.4386C6.558 16.4461 6.82135 16.5139 7.08471 16.6192C7.55875 16.8148 7.96508 17.1008 8.33378 17.4544C9.25177 18.3423 9.86125 19.4108 10.1622 20.6523C10.26 21.0662 10.3052 21.4876 10.2751 21.9165C10.2525 22.2626 10.1773 22.6012 10.0042 22.9097C9.77848 23.3235 9.43988 23.5869 8.97336 23.6546C8.67238 23.6998 8.3714 23.6621 8.08547 23.5718C7.64152 23.4289 7.24273 23.1881 6.88907 22.8946C6.14415 22.2776 5.60238 21.5177 5.19606 20.6523C4.97785 20.1858 4.81984 19.6967 4.73707 19.1851C4.68439 18.9443 4.66935 18.7035 4.6543 18.5605Z" fill="white"/>
<path d="M25.3385 12.8731C25.3385 13.302 25.2934 13.633 25.173 13.9566C25.0827 14.1899 24.9623 14.4081 24.7817 14.5811C24.5334 14.8219 24.24 14.9423 23.9014 14.9649C23.5176 14.9875 23.164 14.8972 22.8178 14.7467C22.3513 14.536 21.945 14.235 21.5838 13.8738C20.7034 12.9859 20.109 11.9325 19.8306 10.7135C19.7478 10.3674 19.7102 10.0138 19.7177 9.6601C19.7328 9.28388 19.793 8.91518 19.966 8.56905C20.1692 8.16272 20.4777 7.89184 20.9217 7.77897C21.2377 7.70373 21.5462 7.73383 21.8547 7.82412C22.3062 7.95204 22.705 8.19282 23.0737 8.48628C23.6756 8.96785 24.1497 9.55476 24.5259 10.2169C24.8795 10.8339 25.1354 11.481 25.2633 12.1808C25.316 12.4442 25.3461 12.7 25.3385 12.8731Z" fill="white"/>
<path d="M14.9855 9.31357C14.1954 9.30605 13.4053 9.18566 12.6604 8.8621C12.2466 8.68904 11.8628 8.45578 11.5468 8.13223C11.306 7.88392 11.1329 7.59799 11.0652 7.25939C11.0125 6.95088 11.0577 6.65743 11.2007 6.37902C11.3511 6.07804 11.5769 5.83726 11.8402 5.63409C12.2466 5.31807 12.7056 5.1149 13.2022 4.97194C13.6461 4.84402 14.0976 4.76878 14.5566 4.73868C15.3918 4.68601 16.2045 4.76878 16.9945 5.03213C17.446 5.18262 17.8674 5.38579 18.2436 5.69429C18.5145 5.9125 18.7402 6.17586 18.8681 6.49941C19.0337 6.90573 19.0036 7.31206 18.8004 7.69581C18.6499 7.98174 18.4317 8.20747 18.1759 8.40311C17.7771 8.71161 17.3256 8.91478 16.844 9.05774C16.2346 9.2308 15.6251 9.30605 14.9855 9.31357Z" fill="white"/>
<path d="M25.3536 18.4559C25.3385 19.0352 25.2181 19.5921 25.0225 20.1338C24.6689 21.097 24.1346 21.9472 23.3897 22.6545C22.9984 23.0308 22.562 23.3393 22.0428 23.5274C21.7494 23.6327 21.4559 23.6929 21.1399 23.6628C20.7336 23.6252 20.4025 23.4521 20.1466 23.1361C19.951 22.8878 19.8381 22.6019 19.7779 22.2933C19.6876 21.8344 19.6952 21.3829 19.7855 20.9239C20.0639 19.4942 20.7486 18.2903 21.8246 17.3197C22.2084 16.9735 22.6448 16.7026 23.1414 16.5446C23.4348 16.4543 23.7433 16.4167 24.0519 16.4694C24.4431 16.5371 24.7441 16.7403 24.9698 17.0638C25.1504 17.3197 25.2482 17.6131 25.2934 17.9141C25.3235 18.0947 25.331 18.2753 25.3536 18.4559Z" fill="white"/>
</svg>
