<svg width="30" height="31" viewBox="0 0 30 31" fill="none" xmlns="http://www.w3.org/2000/svg">
<path d="M0 15.7207C0 7.43643 6.71573 0.720703 15 0.720703V0.720703C23.2843 0.720703 30 7.43643 30 15.7207V15.7207C30 24.005 23.2843 30.7207 15 30.7207V30.7207C6.71573 30.7207 0 24.005 0 15.7207V15.7207Z" fill="#5367FF"/>
<path fill-rule="evenodd" clip-rule="evenodd" d="M11.5335 8.29838C11.3684 8.19481 11.1649 8.19481 10.9998 8.29838L7.26644 10.6398C7.10156 10.7431 7 10.9341 7 11.1408V15.7207C7 15.9275 7.10169 16.1186 7.26674 16.222L11.0001 18.56C11.165 18.6632 11.3683 18.6632 11.5332 18.56L15.6667 17.0843L19 15.0389L21 16.4025V19.8116L18.3333 21.1752L16.3333 19.8116V18.56C16.3333 18.2403 15.5614 18.0849 15.2669 18.0849C14.9724 18.0849 14.4667 18.3245 14.4667 18.6442V20.3041C14.4667 20.5108 14.5683 20.7019 14.7334 20.8052L18.4668 23.1432C18.6317 23.2465 18.835 23.2465 18.9999 23.1432L22.7332 20.8052C22.8983 20.7019 23 20.5108 23 20.3041V15.7241C23 15.5175 22.8985 15.3265 22.7335 15.223L19.0002 12.8817C18.8351 12.7781 18.6316 12.7781 18.4665 12.8817L14.7347 15.222L14.7334 15.2195L11.6667 16.4025L9 14.3571V11.6298L11 10.2662L13.6667 11.6298V12.9934C13.6667 13.313 14.4389 13.2971 14.7334 13.2971C15.0279 13.2971 15.5333 13.313 15.5333 12.9934V11.1408C15.5333 10.9341 15.4318 10.7431 15.2669 10.6398L11.5335 8.29838Z" fill="white"/>
</svg>
