<svg width="19" height="19" viewBox="0 0 19 19" fill="none" xmlns="http://www.w3.org/2000/svg">
<path fill-rule="evenodd" clip-rule="evenodd" d="M9.47397 14.0327C9.62462 14.0327 9.77527 14.0688 9.91266 14.1398L13.4838 16.0064L12.8044 12.0677C12.7504 11.7588 12.8537 11.4442 13.0792 11.2253L15.9558 8.4435L11.9735 7.86363C11.6655 7.8191 11.3993 7.62676 11.2609 7.3482L9.47397 3.75342L7.687 7.3482C7.54867 7.62676 7.28243 7.8191 6.97449 7.86363L2.99219 8.4435L5.86877 11.2253C6.09427 11.4442 6.19755 11.7588 6.14354 12.0677L5.46419 16.0064L9.03528 14.1398C9.17267 14.0688 9.32332 14.0327 9.47397 14.0327ZM14.7444 18.6804C14.5938 18.6804 14.4431 18.6453 14.3057 18.5733L9.47448 16.0492L4.64322 18.5733C4.32297 18.7401 3.9364 18.7107 3.64741 18.4985C3.35558 18.2862 3.21062 17.9271 3.27126 17.5718L4.19222 12.2393L0.288555 8.4636C0.0279953 8.21251 -0.0648588 7.83541 0.0459977 7.49147C0.155907 7.14753 0.453419 6.8974 0.810623 6.84528L6.21227 6.06076L8.62553 1.20392C8.94578 0.55963 10.0032 0.55963 10.3234 1.20392L12.7367 6.06076L18.1383 6.84528C18.4955 6.8974 18.7931 7.14753 18.903 7.49147C19.0138 7.83541 18.921 8.21251 18.6604 8.4636L14.7567 12.2393L15.6777 17.5718C15.7383 17.9271 15.5934 18.2862 15.3015 18.4985C15.1376 18.6197 14.9415 18.6804 14.7444 18.6804Z" fill="#9295A6"/>
</svg>
