<svg width="30" height="31" viewBox="0 0 30 31" fill="none" xmlns="http://www.w3.org/2000/svg">
<path d="M0 15.7207C0 7.43643 6.71573 0.720703 15 0.720703C23.2843 0.720703 30 7.43643 30 15.7207C30 24.005 23.2843 30.7207 15 30.7207C6.71573 30.7207 0 24.005 0 15.7207Z" fill="#5367FF"/>
<path d="M7.06023 16.8767L22.4545 12.7517C22.6946 12.6874 22.8993 12.5303 23.0236 12.315C23.1478 12.0997 23.1816 11.8439 23.1173 11.6038C23.0529 11.3637 22.8958 11.159 22.6805 11.0347C22.4652 10.9104 22.2094 10.8767 21.9693 10.9409L9.56758 14.2639C9.77301 13.4951 10.1394 12.7788 10.6425 12.1622C11.1456 11.5457 11.7739 11.043 12.4858 10.6875C13.1977 10.332 13.977 10.1318 14.7722 10.1001C15.5673 10.0684 16.3601 10.2059 17.098 10.5036C17.3061 10.5854 17.5367 10.5894 17.7474 10.5149C17.9582 10.4404 18.1351 10.2925 18.2455 10.0981C18.3129 9.9803 18.3541 9.84934 18.3664 9.71415C18.3786 9.57896 18.3616 9.44273 18.3164 9.31472C18.2713 9.1867 18.1991 9.06992 18.1047 8.97231C18.0104 8.87471 17.8962 8.79856 17.7698 8.74907C16.7043 8.32581 15.5559 8.15245 14.413 8.24232C13.27 8.33218 12.1629 8.68288 11.1767 9.26747C10.1904 9.85205 9.35132 10.655 8.72385 11.6145C8.09638 12.574 7.69724 13.6646 7.55711 14.8025L6.57273 15.0655C6.33254 15.1299 6.12778 15.2871 6.00348 15.5024C5.87917 15.7178 5.84552 15.9737 5.90992 16.2139C5.97432 16.4541 6.13149 16.6589 6.34686 16.7832C6.56224 16.9075 6.81817 16.9411 7.05836 16.8767H7.06023Z" fill="white"/>
<path d="M22.9398 14.5627L7.54699 18.6877C7.42793 18.7195 7.3163 18.7744 7.21847 18.8493C7.12064 18.9242 7.03851 19.0177 6.97679 19.1243C6.91507 19.2309 6.87496 19.3487 6.85874 19.4708C6.84253 19.593 6.85053 19.7171 6.8823 19.8362C6.91406 19.9552 6.96896 20.0669 7.04387 20.1647C7.11877 20.2625 7.21221 20.3447 7.31886 20.4064C7.53423 20.531 7.7903 20.565 8.03074 20.5009L20.4325 17.1779C20.227 17.9467 19.8606 18.6631 19.3576 19.2796C18.8545 19.8962 18.2262 20.3988 17.5143 20.7543C16.8023 21.1098 16.023 21.3101 15.2279 21.3418C14.4328 21.3735 13.64 21.2359 12.902 20.9382C12.6939 20.8564 12.4634 20.8524 12.2526 20.9269C12.0418 21.0014 11.865 21.1494 11.7545 21.3437C11.6871 21.4615 11.6459 21.5924 11.6337 21.7276C11.6215 21.8627 11.6385 21.9989 11.6836 22.1269C11.7288 22.2549 11.801 22.3716 11.8953 22.4692C11.9896 22.5667 12.1039 22.6428 12.2303 22.6923C13.2959 23.1156 14.4444 23.2889 15.5875 23.1989C16.7305 23.1089 17.8378 22.7581 18.824 22.1733C19.8103 21.5885 20.6494 20.7854 21.2767 19.8256C21.9041 18.8658 22.3031 17.775 22.4429 16.637L23.4273 16.374C23.5462 16.3421 23.6577 16.2871 23.7554 16.2121C23.8531 16.1372 23.935 16.0437 23.9966 15.9371C24.0581 15.8304 24.0981 15.7127 24.1141 15.5906C24.1302 15.4685 24.122 15.3445 24.0901 15.2256C24.0582 15.1066 24.0032 14.9951 23.9283 14.8975C23.8533 14.7998 23.7598 14.7179 23.6532 14.6563C23.5465 14.5948 23.4288 14.5548 23.3067 14.5388C23.1847 14.5227 23.0606 14.5309 22.9417 14.5627H22.9398Z" fill="white"/>
</svg>
