<svg width="30" height="31" viewBox="0 0 30 31" fill="none" xmlns="http://www.w3.org/2000/svg">
<path d="M0 15.7207C0 7.43643 6.71573 0.720703 15 0.720703C23.2843 0.720703 30 7.43643 30 15.7207C30 24.005 23.2843 30.7207 15 30.7207C6.71573 30.7207 0 24.005 0 15.7207Z" fill="#5367FF"/>
<path d="M24.12 14.2291C22.9401 13.1841 21.2221 12.083 19.3019 11.3054C15.9153 9.93339 13.1571 9.99222 11.6759 8.87886C11.0177 8.38425 11.1864 7.35753 11.9616 7.07951C17.4307 5.11968 23.2017 8.68716 24.12 14.2291Z" fill="white"/>
<path d="M23.8354 14.6449C23.9328 15.2331 23.9739 15.8398 23.9524 16.4587C23.9417 16.7681 23.6602 16.9973 23.3543 16.9497C20.7755 16.5486 18.7946 14.4647 19.0174 11.7212C20.943 12.5011 22.6601 13.6039 23.8354 14.6449Z" fill="white"/>
<path d="M8.83396 10.1386C10.3922 16.282 16.5909 20.161 22.8306 18.8307C23.249 18.7415 23.5847 19.1684 23.4058 19.5571C21.9493 22.7232 18.7445 24.9179 15.0283 24.905C9.97868 24.8875 5.86208 20.7399 5.88019 15.6903C5.88788 13.5114 6.65463 11.5115 7.92963 9.94123C8.19853 9.61006 8.72909 9.72508 8.83396 10.1386Z" fill="white"/>
</svg>
