<svg width="30" height="31" viewBox="0 0 30 31" fill="none" xmlns="http://www.w3.org/2000/svg">
<path d="M0 15.7207C0 7.43643 6.71573 0.720703 15 0.720703C23.2843 0.720703 30 7.43643 30 15.7207C30 24.005 23.2843 30.7207 15 30.7207C6.71573 30.7207 0 24.005 0 15.7207Z" fill="#5367FF"/>
<path fill-rule="evenodd" clip-rule="evenodd" d="M16.852 16.3524V16.3507C16.7479 16.3572 16.213 16.3893 15.022 16.3893C14.0698 16.3893 13.3999 16.3623 13.1638 16.35V16.353C9.4996 16.1907 6.7645 15.5527 6.7645 14.7892C6.7645 14.0257 9.4999 13.3884 13.1638 13.2258V15.7173C13.4038 15.7338 14.0902 15.7743 15.0376 15.7743C16.1755 15.7743 16.7476 15.7269 16.8526 15.7173V13.2258C20.5096 13.3887 23.2384 14.0274 23.2384 14.7882C23.2384 15.549 20.5084 16.188 16.8526 16.3509L16.852 16.3524ZM16.8508 12.9672V10.7358H21.9535V7.33594H8.0587V10.7358H13.162V12.9654C9.0145 13.1559 5.896 13.9773 5.896 14.9613C5.896 15.9453 9.016 16.7667 13.162 16.9584V24.1059H16.852V16.9578C20.992 16.7667 24.1042 15.9459 24.1042 14.9628C24.1042 13.9797 20.992 13.1589 16.852 12.9678" fill="white"/>
</svg>
