<svg width="30" height="31" viewBox="0 0 30 31" fill="none" xmlns="http://www.w3.org/2000/svg">
<path d="M0 15.7207C0 7.43643 6.71573 0.720703 15 0.720703C23.2843 0.720703 30 7.43643 30 15.7207C30 24.005 23.2843 30.7207 15 30.7207C6.71573 30.7207 0 24.005 0 15.7207Z" fill="#5367FF"/>
<path fill-rule="evenodd" clip-rule="evenodd" d="M14.5001 14.2207L8.50012 7.2207L19.5248 9.39532L14.5001 14.2207ZM15.0001 14.7207L20.3586 9.76284L22.5537 11.2959L15.0001 14.7207ZM20.5083 9.04756C11.8277 6.91669 7.29964 5.81401 6.92416 5.73952C6.36094 5.6278 6.37323 6.04334 6.41922 6.20046C6.46521 6.35759 13.2777 25.27 13.3694 25.5254C13.461 25.7808 13.8247 25.7908 14.0118 25.5254C14.1365 25.3484 17.3121 20.7336 23.5384 11.6811C23.6167 11.5687 23.662 11.2168 23.4181 11.057C23.1742 10.8971 20.6388 9.0895 20.5083 9.04756ZM13.9497 24.4123L15.0001 15.7207L22.0001 12.7207L13.9497 24.4123ZM7.50012 7.2207L14.0001 15.2207L13.0001 22.2207L7.50012 7.2207Z" fill="white"/>
</svg>
