<svg width="30" height="31" viewBox="0 0 30 31" fill="none" xmlns="http://www.w3.org/2000/svg">
<path d="M0 15.7207C0 7.43643 6.71573 0.720703 15 0.720703C23.2843 0.720703 30 7.43643 30 15.7207C30 24.005 23.2843 30.7207 15 30.7207C6.71573 30.7207 0 24.005 0 15.7207Z" fill="#5367FF"/>
<path d="M18.5843 20.6461C18.0391 21.3097 17.3292 21.7572 16.501 21.9835C16.1409 22.0813 15.9763 22.2716 15.9969 22.6471C16.0123 23.0175 15.9969 23.3827 15.9917 23.7531C15.9917 24.0823 15.822 24.2572 15.4979 24.2675C15.287 24.2726 15.0761 24.2778 14.8652 24.2778C14.68 24.2778 14.4948 24.2778 14.3096 24.2726C13.9598 24.2675 13.7952 24.0669 13.7952 23.7274C13.7901 23.4599 13.7901 23.1872 13.7901 22.9197C13.7849 22.323 13.7644 22.3025 13.1934 22.2099C12.4629 22.0916 11.7428 21.9269 11.074 21.6029C10.5494 21.3457 10.4928 21.2171 10.6419 20.6615C10.7551 20.25 10.8683 19.8385 10.9969 19.4321C11.0895 19.1337 11.1769 19 11.3364 19C11.429 19 11.5473 19.0463 11.7068 19.1286C12.4475 19.5144 13.2345 19.7304 14.0627 19.8333C14.2016 19.8488 14.3405 19.859 14.4794 19.859C14.8652 19.859 15.2407 19.787 15.6059 19.6276C16.5267 19.2263 16.6708 18.1615 15.894 17.5237C15.6317 17.3076 15.3282 17.1481 15.0144 17.0093C14.2068 16.6543 13.3683 16.3868 12.607 15.929C11.3724 15.1883 10.5905 14.1749 10.6831 12.6728C10.786 10.9753 11.7479 9.91563 13.3066 9.34979C13.9496 9.11831 13.9547 9.12345 13.9547 8.45473C13.9547 8.22839 13.9496 8.00205 13.9598 7.77057C13.9753 7.26646 14.0576 7.17901 14.5617 7.16357C14.6183 7.16357 14.68 7.16357 14.7366 7.16357C14.8343 7.16357 14.9321 7.16357 15.0298 7.16357C15.071 7.16357 15.1121 7.16357 15.1481 7.16357C16.1049 7.16357 16.1049 7.20473 16.1101 8.23868C16.1152 8.99999 16.1152 8.99999 16.8714 9.11831C17.4526 9.2109 18.0031 9.38065 18.538 9.61728C18.8312 9.74588 18.9444 9.95164 18.8518 10.2654C18.7181 10.7284 18.5895 11.1965 18.4454 11.6543C18.3528 11.9321 18.2654 12.0607 18.1008 12.0607C18.0082 12.0607 17.895 12.0247 17.751 11.9527C17.0103 11.5926 16.2335 11.4177 15.4208 11.4177C15.3179 11.4177 15.2098 11.4228 15.107 11.428C14.8652 11.4434 14.6286 11.4743 14.4022 11.572C13.5998 11.9218 13.4712 12.8066 14.1553 13.3518C14.5 13.6296 14.8961 13.8251 15.3024 13.9949C16.0123 14.2881 16.7222 14.571 17.3961 14.9414C19.5154 16.1245 20.0915 18.8148 18.5843 20.6461Z" fill="white"/>
</svg>
