<svg width="30" height="31" viewBox="0 0 30 31" fill="none" xmlns="http://www.w3.org/2000/svg">
<path d="M0 15.7207C0 7.43643 6.71573 0.720703 15 0.720703C23.2843 0.720703 30 7.43643 30 15.7207C30 24.005 23.2843 30.7207 15 30.7207C6.71573 30.7207 0 24.005 0 15.7207Z" fill="#5367FF"/>
<path d="M21.274 9.6901C21.2402 9.60779 21.1828 9.53733 21.109 9.4876C21.0352 9.43787 20.9483 9.4111 20.8593 9.41065H18.6057C18.5464 9.41031 18.4876 9.42168 18.4327 9.44411C18.3778 9.46654 18.3278 9.49959 18.2857 9.54136L15.32 12.5116C15.2781 12.5539 15.2282 12.5874 15.1733 12.6103C15.1184 12.6332 15.0595 12.6449 15 12.6449C14.9405 12.6449 14.8815 12.6332 14.8266 12.6103C14.7717 12.5874 14.7218 12.5539 14.6799 12.5116L11.7142 9.54136C11.6721 9.49959 11.6221 9.46654 11.5672 9.44411C11.5123 9.42168 11.4535 9.41031 11.3942 9.41065H9.14058C9.05159 9.4111 8.96473 9.43787 8.89094 9.4876C8.81715 9.53733 8.75973 9.60779 8.72591 9.6901C8.6914 9.77218 8.68197 9.86265 8.69881 9.95008C8.71566 10.0375 8.75802 10.118 8.82057 10.1814L13.4044 14.7652C13.6137 14.9751 13.8624 15.1416 14.1362 15.2552C14.41 15.3688 14.7035 15.4273 15 15.4273C15.2964 15.4273 15.5899 15.3688 15.8637 15.2552C16.1375 15.1416 16.3862 14.9751 16.5955 14.7652L21.1794 10.1814C21.2419 10.118 21.2843 10.0375 21.3011 9.95008C21.318 9.86265 21.3085 9.77218 21.274 9.6901Z" fill="white"/>
<path d="M21.1794 21.2601L16.5955 16.6762C16.3862 16.4664 16.1375 16.2999 15.8637 16.1863C15.5899 16.0726 15.2964 16.0142 15 16.0142C14.7035 16.0142 14.41 16.0726 14.1362 16.1863C13.8624 16.2999 13.6137 16.4664 13.4044 16.6762L8.82057 21.2601C8.75802 21.3235 8.71566 21.404 8.69881 21.4914C8.68197 21.5788 8.6914 21.6693 8.72591 21.7514C8.75973 21.8337 8.81715 21.9041 8.89094 21.9539C8.96473 22.0036 9.05159 22.0304 9.14058 22.0308H11.3942C11.4535 22.0312 11.5123 22.0198 11.5672 21.9974C11.6221 21.9749 11.6721 21.9419 11.7142 21.9001L14.6799 18.9299C14.7218 18.8876 14.7717 18.8541 14.8266 18.8312C14.8815 18.8083 14.9405 18.7965 15 18.7965C15.0595 18.7965 15.1184 18.8083 15.1733 18.8312C15.2282 18.8541 15.2781 18.8876 15.32 18.9299L18.2857 21.9001C18.3278 21.9419 18.3778 21.9749 18.4327 21.9974C18.4876 22.0198 18.5464 22.0312 18.6057 22.0308H20.8593C20.9483 22.0304 21.0352 22.0036 21.109 21.9539C21.1828 21.9041 21.2402 21.8337 21.274 21.7514C21.3085 21.6693 21.318 21.5788 21.3011 21.4914C21.2843 21.404 21.2419 21.3235 21.1794 21.2601Z" fill="white"/>
</svg>
