<svg width="11" height="7" viewBox="0 0 11 7" fill="none" xmlns="http://www.w3.org/2000/svg">
<path d="M1.40565 6.52192C1.04222 6.82535 0.502214 6.77564 0.198782 6.41221C-0.104651 6.04877 -0.0549358 5.50791 0.308498 5.20533L4.59427 0.919563C4.63455 0.885277 4.68255 0.868991 4.72713 0.843276C4.76227 0.822704 4.79313 0.798704 4.8317 0.783275C4.93199 0.743846 5.03656 0.720703 5.14285 0.720703C5.24913 0.720703 5.35371 0.743846 5.45399 0.783275C5.49257 0.798704 5.52342 0.822704 5.55857 0.843276C5.60314 0.868991 5.65114 0.885277 5.69142 0.919563L9.97719 5.20533C10.3415 5.50791 10.3903 6.04877 10.0869 6.41221C9.78434 6.77564 9.24433 6.82535 8.88004 6.52192L6 3.40788L5.14292 2.5508L4.28377 3.40996L1.40565 6.52192Z" fill="#5367FF"/>
</svg>
