<svg width="11" height="6" viewBox="0 0 11 6" fill="none" xmlns="http://www.w3.org/2000/svg">
<path d="M1.40565 5.80122C1.04222 6.10465 0.502214 6.05494 0.198782 5.6915C-0.104651 5.32807 -0.0549358 4.78721 0.308498 4.48463L4.59427 0.19886C4.63455 0.164574 4.68255 0.148288 4.72713 0.122573C4.76227 0.102001 4.79313 0.078001 4.8317 0.0625722C4.93199 0.0231432 5.03656 0 5.14285 0C5.24913 0 5.35371 0.0231432 5.45399 0.0625722C5.49257 0.078001 5.52342 0.102001 5.55857 0.122573C5.60314 0.148288 5.65114 0.164574 5.69142 0.19886L9.97719 4.48463C10.3415 4.78721 10.3903 5.32807 10.0869 5.6915C9.78434 6.05494 9.24433 6.10465 8.88004 5.80122L6 2.68718L5.14292 1.8301L4.28377 2.68926L1.40565 5.80122Z" fill="#9295A6"/>
</svg>
