<svg width="30" height="31" viewBox="0 0 30 31" fill="none" xmlns="http://www.w3.org/2000/svg">
<path d="M0 15.7207C0 7.43643 6.71573 0.720703 15 0.720703C23.2843 0.720703 30 7.43643 30 15.7207C30 24.005 23.2843 30.7207 15 30.7207C6.71573 30.7207 0 24.005 0 15.7207Z" fill="white"/>
<path fill-rule="evenodd" clip-rule="evenodd" d="M13.125 21.9708C12.805 21.9708 12.485 21.8483 12.2413 21.6045C11.7525 21.1158 11.7525 20.3258 12.2413 19.837L16.3725 15.7058L12.3975 11.5895C11.9188 11.092 11.9325 10.3008 12.4288 9.82202C12.9263 9.34327 13.7175 9.35702 14.1963 9.85202L19.0238 14.852C19.4975 15.3433 19.4913 16.122 19.0088 16.6045L14.0088 21.6045C13.765 21.8483 13.445 21.9708 13.125 21.9708Z" fill="#5367FF"/>
</svg>
