<svg width="24" height="25" viewBox="0 0 24 25" fill="none" xmlns="http://www.w3.org/2000/svg">
<path d="M17.34 6.1807C17.1027 6.1807 16.8707 6.25108 16.6733 6.38294C16.476 6.5148 16.3222 6.70221 16.2313 6.92148C16.1405 7.14075 16.1168 7.38203 16.1631 7.61481C16.2094 7.84759 16.3236 8.06141 16.4915 8.22923C16.6593 8.39705 16.8731 8.51134 17.1059 8.55765C17.3387 8.60395 17.5799 8.58018 17.7992 8.48936C18.0185 8.39853 18.2059 8.24473 18.3378 8.04739C18.4696 7.85005 18.54 7.61804 18.54 7.3807C18.54 7.06244 18.4136 6.75722 18.1885 6.53218C17.9635 6.30713 17.6583 6.1807 17.34 6.1807ZM21.94 8.6007C21.9206 7.771 21.7652 6.95011 21.48 6.1707C21.2257 5.50384 20.83 4.89998 20.32 4.4007C19.8248 3.88813 19.2196 3.49488 18.55 3.2507C17.7727 2.95686 16.9508 2.79791 16.12 2.7807C15.06 2.7207 14.72 2.7207 12 2.7207C9.28 2.7207 8.94 2.7207 7.88 2.7807C7.04915 2.79791 6.22734 2.95686 5.45 3.2507C4.78168 3.49735 4.17693 3.89026 3.68 4.4007C3.16743 4.89588 2.77418 5.50114 2.53 6.1707C2.23616 6.94805 2.07721 7.76986 2.06 8.6007C2 9.6607 2 10.0007 2 12.7207C2 15.4407 2 15.7807 2.06 16.8407C2.07721 17.6716 2.23616 18.4934 2.53 19.2707C2.77418 19.9403 3.16743 20.5455 3.68 21.0407C4.17693 21.5511 4.78168 21.9441 5.45 22.1907C6.22734 22.4845 7.04915 22.6435 7.88 22.6607C8.94 22.7207 9.28 22.7207 12 22.7207C14.72 22.7207 15.06 22.7207 16.12 22.6607C16.9508 22.6435 17.7727 22.4845 18.55 22.1907C19.2196 21.9465 19.8248 21.5533 20.32 21.0407C20.8322 20.5433 21.2283 19.9389 21.48 19.2707C21.7652 18.4913 21.9206 17.6704 21.94 16.8407C21.94 15.7807 22 15.4407 22 12.7207C22 10.0007 22 9.6607 21.94 8.6007ZM20.14 16.7207C20.1327 17.3555 20.0178 17.9844 19.8 18.5807C19.6403 19.0159 19.3839 19.4091 19.05 19.7307C18.7256 20.0612 18.3332 20.3171 17.9 20.4807C17.3037 20.6985 16.6748 20.8134 16.04 20.8207C15.04 20.8707 14.67 20.8807 12.04 20.8807C9.41 20.8807 9.04 20.8807 8.04 20.8207C7.38089 20.833 6.72459 20.7316 6.1 20.5207C5.68578 20.3488 5.31136 20.0935 5 19.7707C4.66809 19.4495 4.41484 19.0559 4.26 18.6207C4.01586 18.0159 3.88044 17.3726 3.86 16.7207C3.86 15.7207 3.8 15.3507 3.8 12.7207C3.8 10.0907 3.8 9.7207 3.86 8.7207C3.86448 8.07176 3.98295 7.42865 4.21 6.8207C4.38605 6.39861 4.65627 6.02236 5 5.7207C5.30381 5.37687 5.67929 5.1038 6.1 4.9207C6.70955 4.70075 7.352 4.58578 8 4.5807C9 4.5807 9.37 4.5207 12 4.5207C14.63 4.5207 15 4.5207 16 4.5807C16.6348 4.58798 17.2637 4.70295 17.86 4.9207C18.3144 5.08936 18.7223 5.36355 19.05 5.7207C19.3777 6.02788 19.6338 6.40344 19.8 6.8207C20.0223 7.42964 20.1373 8.07248 20.14 8.7207C20.19 9.7207 20.2 10.0907 20.2 12.7207C20.2 15.3507 20.19 15.7207 20.14 16.7207ZM12 7.5907C10.9858 7.59268 9.99496 7.89523 9.15265 8.46012C8.31035 9.02501 7.65438 9.8269 7.26763 10.7645C6.88089 11.702 6.78072 12.7332 6.97979 13.7276C7.17886 14.7221 7.66824 15.6352 8.38608 16.3517C9.10392 17.0681 10.018 17.5557 11.0129 17.7529C12.0077 17.95 13.0387 17.8478 13.9755 17.4592C14.9123 17.0707 15.7129 16.4131 16.2761 15.5697C16.8394 14.7263 17.14 13.7349 17.14 12.7207C17.1413 12.0458 17.0092 11.3773 16.7512 10.7537C16.4933 10.13 16.1146 9.56351 15.6369 9.08675C15.1592 8.60999 14.5919 8.23238 13.9678 7.97563C13.3436 7.71888 12.6749 7.58807 12 7.5907ZM12 16.0507C11.3414 16.0507 10.6976 15.8554 10.15 15.4895C9.60234 15.1236 9.17552 14.6035 8.92348 13.995C8.67144 13.3866 8.6055 12.717 8.73398 12.0711C8.86247 11.4251 9.17963 10.8317 9.64533 10.366C10.111 9.90033 10.7044 9.58318 11.3503 9.45469C11.9963 9.3262 12.6659 9.39214 13.2743 9.64418C13.8828 9.89622 14.4029 10.323 14.7688 10.8707C15.1347 11.4183 15.33 12.0621 15.33 12.7207C15.33 13.158 15.2439 13.591 15.0765 13.995C14.9092 14.3991 14.6639 14.7661 14.3547 15.0754C14.0454 15.3846 13.6784 15.6299 13.2743 15.7972C12.8703 15.9646 12.4373 16.0507 12 16.0507Z" fill="#9295A6"/>
</svg>
