<svg width="153" height="39" viewBox="0 0 153 39" fill="none" xmlns="http://www.w3.org/2000/svg">
<g clip-path="url(#clip0_1050_95529)">
<path d="M0.878906 28.9026L0.878909 10.1147L10.2728 15.3336V23.7359L17.788 27.9632L25.3031 23.7359V15.3336L34.6971 10.1147V28.9026L17.788 38.2965L0.878906 28.9026Z" fill="#192657"/>
<path fill-rule="evenodd" clip-rule="evenodd" d="M5.57588 12.7241L0.878906 10.1146L17.788 0.720703L34.6971 10.1146L30.0001 12.7241V26.554L17.788 33.5995L5.57587 26.554L5.57588 12.7241ZM29.4913 13.0068L25.3031 15.3335V15.2813L17.788 11.054L10.2728 15.2813V15.3335L6.08471 13.0068V26.265L17.788 33.0169L29.4913 26.265V13.0068Z" fill="url(#paint0_linear_1050_95529)"/>
<path d="M43.7002 27.4175V11.6357H46.6762V24.712H53.8908V27.4175H43.7002Z" fill="#192657"/>
<path d="M60.3159 27.7332C59.2037 27.7332 58.2042 27.5078 57.3174 27.0568C56.4306 26.6059 55.7317 25.9521 55.2207 25.0954C54.7096 24.2387 54.4541 23.2091 54.4541 22.0067V21.6459C54.4541 20.4435 54.7096 19.4139 55.2207 18.5572C55.7317 17.7005 56.4306 17.0467 57.3174 16.5958C58.2042 16.1448 59.2037 15.9194 60.3159 15.9194C61.4282 15.9194 62.4277 16.1448 63.3145 16.5958C64.2013 17.0467 64.9002 17.7005 65.4112 18.5572C65.9222 19.4139 66.1778 20.4435 66.1778 21.6459V22.0067C66.1778 23.2091 65.9222 24.2387 65.4112 25.0954C64.9002 25.9521 64.2013 26.6059 63.3145 27.0568C62.4277 27.5078 61.4282 27.7332 60.3159 27.7332ZM60.3159 25.2081C61.1877 25.2081 61.9092 24.9301 62.4803 24.3739C63.0515 23.8028 63.337 22.9911 63.337 21.939V21.7136C63.337 20.6615 63.0515 19.8573 62.4803 19.3012C61.9242 18.7301 61.2027 18.4445 60.3159 18.4445C59.4442 18.4445 58.7227 18.7301 58.1516 19.3012C57.5804 19.8573 57.2949 20.6615 57.2949 21.7136V21.939C57.2949 22.9911 57.5804 23.8028 58.1516 24.3739C58.7227 24.9301 59.4442 25.2081 60.3159 25.2081Z" fill="#192657"/>
<path d="M67.2441 21.8714V21.5107C67.2441 20.3383 67.477 19.3388 67.943 18.5121C68.4089 17.6704 69.0252 17.0316 69.7917 16.5958C70.5733 16.1448 71.4225 15.9194 72.3393 15.9194C73.3614 15.9194 74.1355 16.0998 74.6615 16.4605C75.1876 16.8212 75.5709 17.197 75.8113 17.5878H76.2172V16.235H79.0128V29.4016C79.0128 30.1681 78.7873 30.7768 78.3364 31.2278C77.8855 31.6937 77.2843 31.9267 76.5328 31.9267H69.0477V29.4467H75.5408C75.9616 29.4467 76.1721 29.2212 76.1721 28.7703V25.8619H75.7662C75.6159 26.1024 75.4055 26.3504 75.135 26.6059C74.8644 26.8464 74.5037 27.0493 74.0528 27.2147C73.6019 27.38 73.0307 27.4627 72.3393 27.4627C71.4225 27.4627 70.5733 27.2447 69.7917 26.8088C69.0252 26.3579 68.4089 25.7191 67.943 24.8925C67.477 24.0508 67.2441 23.0438 67.2441 21.8714ZM73.151 24.9827C74.0227 24.9827 74.7517 24.7046 75.3379 24.1485C75.9241 23.5924 76.2172 22.8108 76.2172 21.8038V21.5783C76.2172 20.5562 75.9241 19.7747 75.3379 19.2336C74.7667 18.6775 74.0378 18.3994 73.151 18.3994C72.2792 18.3994 71.5502 18.6775 70.9641 19.2336C70.3779 19.7747 70.0848 20.5562 70.0848 21.5783V21.8038C70.0848 22.8108 70.3779 23.5924 70.9641 24.1485C71.5502 24.7046 72.2792 24.9827 73.151 24.9827Z" fill="#192657"/>
<path d="M86.4682 27.7332C85.3559 27.7332 84.3564 27.5078 83.4696 27.0568C82.5828 26.6059 81.8839 25.9521 81.3729 25.0954C80.8619 24.2387 80.6064 23.2091 80.6064 22.0067V21.6459C80.6064 20.4435 80.8619 19.4139 81.3729 18.5572C81.8839 17.7005 82.5828 17.0467 83.4696 16.5958C84.3564 16.1448 85.3559 15.9194 86.4682 15.9194C87.5804 15.9194 88.5799 16.1448 89.4667 16.5958C90.3535 17.0467 91.0524 17.7005 91.5634 18.5572C92.0745 19.4139 92.33 20.4435 92.33 21.6459V22.0067C92.33 23.2091 92.0745 24.2387 91.5634 25.0954C91.0524 25.9521 90.3535 26.6059 89.4667 27.0568C88.5799 27.5078 87.5804 27.7332 86.4682 27.7332ZM86.4682 25.2081C87.3399 25.2081 88.0614 24.9301 88.6325 24.3739C89.2037 23.8028 89.4893 22.9911 89.4893 21.939V21.7136C89.4893 20.6615 89.2037 19.8573 88.6325 19.3012C88.0764 18.7301 87.355 18.4445 86.4682 18.4445C85.5964 18.4445 84.875 18.7301 84.3038 19.3012C83.7327 19.8573 83.4471 20.6615 83.4471 21.7136V21.939C83.4471 22.9911 83.7327 23.8028 84.3038 24.3739C84.875 24.9301 85.5964 25.2081 86.4682 25.2081Z" fill="#192657"/>
<path d="M93.938 27.4178V16.2352H96.7787V27.4178H93.938ZM95.3583 14.9276C94.8473 14.9276 94.4114 14.7623 94.0507 14.4316C93.705 14.1009 93.5322 13.665 93.5322 13.124C93.5322 12.5829 93.705 12.147 94.0507 11.8163C94.4114 11.4857 94.8473 11.3203 95.3583 11.3203C95.8844 11.3203 96.3203 11.4857 96.666 11.8163C97.0117 12.147 97.1845 12.5829 97.1845 13.124C97.1845 13.665 97.0117 14.1009 96.666 14.4316C96.3203 14.7623 95.8844 14.9276 95.3583 14.9276Z" fill="#192657"/>
<path d="M98.9122 31.9267V16.235H101.708V17.5878H102.114C102.369 17.1519 102.767 16.7686 103.309 16.4379C103.85 16.0922 104.624 15.9194 105.631 15.9194C106.533 15.9194 107.367 16.1448 108.133 16.5958C108.9 17.0316 109.516 17.6779 109.982 18.5347C110.448 19.3914 110.681 20.4285 110.681 21.6459V22.0067C110.681 23.2241 110.448 24.2612 109.982 25.1179C109.516 25.9747 108.9 26.6285 108.133 27.0794C107.367 27.5153 106.533 27.7332 105.631 27.7332C104.954 27.7332 104.383 27.6505 103.917 27.4852C103.466 27.3349 103.098 27.1395 102.813 26.899C102.542 26.6435 102.324 26.388 102.159 26.1325H101.753V31.9267H98.9122ZM104.774 25.2532C105.661 25.2532 106.39 24.9751 106.961 24.419C107.547 23.8479 107.84 23.0212 107.84 21.939V21.7136C107.84 20.6314 107.547 19.8122 106.961 19.2561C106.375 18.685 105.646 18.3994 104.774 18.3994C103.902 18.3994 103.173 18.685 102.587 19.2561C102.001 19.8122 101.708 20.6314 101.708 21.7136V21.939C101.708 23.0212 102.001 23.8479 102.587 24.419C103.173 24.9751 103.902 25.2532 104.774 25.2532Z" fill="#192657"/>
<path d="M116.919 27.7332C115.461 27.7332 114.266 27.4176 113.334 26.7863C112.403 26.155 111.839 25.2532 111.643 24.0808L114.259 23.4045C114.364 23.9305 114.537 24.3439 114.777 24.6445C115.033 24.9451 115.341 25.163 115.702 25.2983C116.077 25.4185 116.483 25.4787 116.919 25.4787C117.58 25.4787 118.069 25.3659 118.385 25.1405C118.7 24.9 118.858 24.6069 118.858 24.2612C118.858 23.9155 118.708 23.6525 118.407 23.4721C118.107 23.2767 117.626 23.1189 116.964 22.9987L116.333 22.8859C115.551 22.7356 114.837 22.5327 114.191 22.2772C113.545 22.0067 113.026 21.6384 112.635 21.1725C112.245 20.7065 112.049 20.1053 112.049 19.3688C112.049 18.2566 112.455 17.4074 113.267 16.8212C114.078 16.22 115.146 15.9194 116.468 15.9194C117.716 15.9194 118.753 16.1975 119.579 16.7536C120.406 17.3097 120.947 18.0387 121.203 18.9405L118.565 19.7521C118.445 19.181 118.197 18.7751 117.821 18.5347C117.46 18.2942 117.009 18.1739 116.468 18.1739C115.927 18.1739 115.514 18.2716 115.228 18.467C114.943 18.6474 114.8 18.9029 114.8 19.2336C114.8 19.5943 114.95 19.8648 115.251 20.0452C115.551 20.2105 115.957 20.3383 116.468 20.4285L117.099 20.5412C117.941 20.6915 118.7 20.8944 119.377 21.1499C120.068 21.3904 120.609 21.7436 121 22.2096C121.406 22.6605 121.609 23.2767 121.609 24.0583C121.609 25.2307 121.18 26.14 120.323 26.7863C119.482 27.4176 118.347 27.7332 116.919 27.7332Z" fill="#192657"/>
<path d="M127.344 27.5983C126.473 27.5983 125.706 27.4029 125.045 27.0122C124.399 26.6063 123.895 26.0502 123.534 25.3438C123.174 24.6374 122.993 23.8257 122.993 22.9089V16.2354H125.834V22.6834C125.834 23.5251 126.037 24.1564 126.443 24.5772C126.863 24.9981 127.457 25.2085 128.224 25.2085C129.095 25.2085 129.772 24.9229 130.253 24.3518C130.734 23.7656 130.974 22.954 130.974 21.9169V16.2354H133.815V27.418H131.019V25.9525H130.614C130.433 26.3283 130.095 26.6965 129.599 27.0572C129.103 27.418 128.351 27.5983 127.344 27.5983Z" fill="#192657"/>
<path d="M135.962 27.4176V16.235H138.757V17.4525H139.163C139.358 17.0767 139.682 16.7536 140.132 16.483C140.583 16.1975 141.177 16.0547 141.914 16.0547C142.71 16.0547 143.349 16.2125 143.83 16.5281C144.311 16.8287 144.679 17.227 144.935 17.723H145.34C145.596 17.2421 145.957 16.8438 146.423 16.5281C146.889 16.2125 147.55 16.0547 148.407 16.0547C149.098 16.0547 149.722 16.205 150.278 16.5056C150.849 16.7911 151.3 17.2345 151.631 17.8358C151.976 18.4219 152.149 19.1659 152.149 20.0678V27.4176H149.308V20.2707C149.308 19.6544 149.151 19.196 148.835 18.8954C148.519 18.5798 148.076 18.4219 147.505 18.4219C146.859 18.4219 146.355 18.6324 145.994 19.0532C145.649 19.459 145.476 20.0452 145.476 20.8118V27.4176H142.635V20.2707C142.635 19.6544 142.477 19.196 142.162 18.8954C141.846 18.5798 141.403 18.4219 140.831 18.4219C140.185 18.4219 139.682 18.6324 139.321 19.0532C138.975 19.459 138.802 20.0452 138.802 20.8118V27.4176H135.962Z" fill="#192657"/>
</g>
<defs>
<linearGradient id="paint0_linear_1050_95529" x1="5.57587" y1="8.02708" x2="30.9395" y2="8.02709" gradientUnits="userSpaceOnUse">
<stop stop-color="#64C2DB"/>
<stop offset="0.307292" stop-color="#7476ED"/>
<stop offset="0.604167" stop-color="#C994DF"/>
<stop offset="1" stop-color="#E56F8C"/>
</linearGradient>
<clipPath id="clip0_1050_95529">
<rect width="153" height="38" fill="white" transform="translate(0 0.720703)"/>
</clipPath>
</defs>
</svg>
