<svg width="152" height="40" viewBox="0 0 152 40" fill="none" xmlns="http://www.w3.org/2000/svg">
<path d="M53.0615 25.4976H61.9475V23.0779H55.9964V11.6162H53.0615V25.4976Z" fill="#3C2979"/>
<path d="M67.9678 25.7007C71.1264 25.7007 73.0921 23.5385 73.0921 20.3325C73.0921 17.1061 71.1264 14.9507 67.9678 14.9507C64.8093 14.9507 62.8438 17.1061 62.8438 20.3325C62.8438 23.5385 64.8093 25.7007 67.9678 25.7007ZM67.9814 23.4639C66.5241 23.4639 65.7786 22.1286 65.7786 20.3121C65.7786 18.4956 66.5241 17.1536 67.9814 17.1536C69.4116 17.1536 70.1571 18.4956 70.1571 20.3121C70.1571 22.1286 69.4116 23.4639 67.9814 23.4639Z" fill="#3C2979"/>
<path d="M79.0874 29.6184C82.063 29.6184 84.1777 28.2627 84.1777 25.599V15.0863H81.3106V16.835H81.2022C80.8158 15.9877 79.9686 14.9507 78.2266 14.9507C75.9424 14.9507 74.0107 16.7266 74.0107 20.2715C74.0107 23.735 75.8882 25.3482 78.2334 25.3482C79.894 25.3482 80.8226 24.5145 81.2022 23.6537H81.3242V25.5583C81.3242 26.9885 80.4091 27.5443 79.1552 27.5443C77.8809 27.5443 77.237 26.9885 76.9998 26.3581L74.3293 26.7174C74.6749 28.3576 76.2813 29.6184 79.0874 29.6184ZM79.1484 23.1792C77.7318 23.1792 76.9591 22.0541 76.9591 20.2579C76.9591 18.4888 77.7183 17.2485 79.1484 17.2485C80.5515 17.2485 81.3377 18.4346 81.3377 20.2579C81.3377 22.0947 80.5379 23.1792 79.1484 23.1792Z" fill="#3C2979"/>
<path d="M90.6066 25.7007C93.7652 25.7007 95.7308 23.5385 95.7308 20.3325C95.7308 17.1061 93.7652 14.9507 90.6066 14.9507C87.4481 14.9507 85.4824 17.1061 85.4824 20.3325C85.4824 23.5385 87.4481 25.7007 90.6066 25.7007ZM90.6202 23.4639C89.1629 23.4639 88.4173 22.1286 88.4173 20.3121C88.4173 18.4956 89.1629 17.1536 90.6202 17.1536C92.0503 17.1536 92.7959 18.4956 92.7959 20.3121C92.7959 22.1286 92.0503 23.4639 90.6202 23.4639Z" fill="#3C2979"/>
<path d="M97.0362 25.4976H99.9236V15.0866H97.0362V25.4976ZM98.4867 13.7445C99.3475 13.7445 100.052 13.0871 100.052 12.2805C100.052 11.4807 99.3475 10.8232 98.4867 10.8232C97.6327 10.8232 96.9277 11.4807 96.9277 12.2805C96.9277 13.0871 97.6327 13.7445 98.4867 13.7445Z" fill="#3C2979"/>
<path d="M101.664 29.4015H104.551V23.8299H104.639C105.039 24.6975 105.913 25.6668 107.594 25.6668C109.967 25.6668 111.817 23.7893 111.817 20.3053C111.817 16.7266 109.885 14.9507 107.601 14.9507C105.859 14.9507 105.026 15.9877 104.639 16.835H104.51V15.0863H101.664V29.4015ZM104.49 20.2918C104.49 18.4346 105.276 17.2485 106.679 17.2485C108.11 17.2485 108.869 18.4888 108.869 20.2918C108.869 22.1083 108.096 23.369 106.679 23.369C105.29 23.369 104.49 22.149 104.49 20.2918Z" fill="#3C2979"/>
<path d="M121.832 18.055C121.574 16.1369 120.029 14.9507 117.399 14.9507C114.735 14.9507 112.98 16.1843 112.986 18.1906C112.98 19.7496 113.962 20.7595 115.996 21.1662L117.799 21.5254C118.707 21.7084 119.121 22.0405 119.134 22.5624C119.121 23.1792 118.45 23.6198 117.44 23.6198C116.409 23.6198 115.725 23.1792 115.549 22.332L112.709 22.4811C112.98 24.4738 114.674 25.7007 117.433 25.7007C120.13 25.7007 122.062 24.3247 122.069 22.271C122.062 20.7663 121.079 19.8648 119.06 19.4513L117.175 19.0717C116.206 18.8616 115.847 18.5295 115.854 18.0279C115.847 17.4044 116.552 16.9977 117.446 16.9977C118.45 16.9977 119.046 17.5467 119.188 18.2177L121.832 18.055Z" fill="#3C2979"/>
<path d="M129.991 21.0646C129.998 22.4609 129.042 23.1929 128.005 23.1929C126.914 23.1929 126.209 22.427 126.202 21.2001V15.0864H123.315V21.7153C123.321 24.1486 124.745 25.633 126.839 25.633C128.405 25.633 129.53 24.8264 129.998 23.6063H130.106V25.4974H132.878V15.0864H129.991V21.0646Z" fill="#3C2979"/>
<path d="M134.615 25.4973H137.503V19.248C137.503 18.0957 138.235 17.3298 139.197 17.3298C140.146 17.3298 140.783 17.9805 140.783 19.004V25.4973H143.583V19.1395C143.583 18.0618 144.2 17.3298 145.25 17.3298C146.172 17.3298 146.863 17.9059 146.863 19.065V25.4973H149.744V18.4956C149.744 16.2385 148.402 14.9507 146.463 14.9507C144.938 14.9507 143.752 15.7302 143.325 16.9231H143.217C142.885 15.7166 141.82 14.9507 140.39 14.9507C138.987 14.9507 137.923 15.6963 137.489 16.9231H137.367V15.0863H134.615V25.4973Z" fill="#3C2979"/>
<path d="M17.123 2.7207H26.1218L22.5097 12.815C16.1521 13.9322 11.2895 20.0832 11.2895 27.5037C11.2895 30.8512 12.2791 33.9404 13.949 36.4256H2.00006L12.9237 5.89878C13.6105 3.97933 15.2736 2.7207 17.123 2.7207Z" fill="#341492"/>
<path d="M26.1219 2.7207L23.5833 9.81496L22.8184 2.7207H26.1219Z" fill="black" fill-opacity="0.3"/>
<path d="M31.8172 2.7207H22.8184L26.4153 12.7724C32.8994 13.7659 37.8945 19.9827 37.8945 27.5037C37.8945 30.8512 36.9049 33.9404 35.235 36.4256H46.9401L36.0165 5.89879C35.3297 3.97933 33.6666 2.7207 31.8172 2.7207Z" fill="#4C28B5"/>
<path d="M15.5183 35.4538C13.9805 33.2638 13.0635 30.5033 13.0635 27.5033C13.0635 20.3859 18.2251 14.6162 24.5922 14.6162C30.9594 14.6162 36.121 20.3859 36.121 27.5033C36.121 30.5033 35.204 33.2638 33.6662 35.4538C31.1417 33.5744 27.9989 32.4599 24.5922 32.4599C21.1856 32.4599 18.0428 33.5744 15.5183 35.4538Z" fill="#4C28B5"/>
</svg>
