<svg width="170" height="42" viewBox="0 0 170 42" fill="none" xmlns="http://www.w3.org/2000/svg">
<g clip-path="url(#clip0_1050_95541)">
<path d="M51.2773 30.0438H63.2293V26.4438H55.5253V12.8838H51.2773V30.0438Z" fill="#2F234F"/>
<path d="M70.3108 27.6439C68.6068 27.6439 67.7188 26.1559 67.7188 23.9239C67.7188 21.6919 68.6068 20.1799 70.3108 20.1799C72.0148 20.1799 72.9268 21.6919 72.9268 23.9239C72.9268 26.1559 72.0148 27.6439 70.3108 27.6439ZM70.3348 30.4279C74.2948 30.4279 76.8868 27.6199 76.8868 23.9239C76.8868 20.2279 74.2948 17.4199 70.3348 17.4199C66.3988 17.4199 63.7588 20.2279 63.7588 23.9239C63.7588 27.6199 66.3988 30.4279 70.3348 30.4279Z" fill="#2F234F"/>
<path d="M83.7406 34.292C85.5646 34.292 87.1726 33.884 88.2526 32.924C89.2366 32.036 89.8846 30.692 89.8846 28.844V17.756H86.1406V19.076H86.0926C85.3726 18.044 84.2686 17.396 82.6366 17.396C79.5886 17.396 77.4766 19.94 77.4766 23.54C77.4766 27.308 80.0446 29.372 82.8046 29.372C84.2926 29.372 85.2286 28.772 85.9486 27.956H86.0446V29.18C86.0446 30.668 85.3486 31.532 83.6926 31.532C82.3966 31.532 81.7486 30.98 81.5326 30.332H77.7406C78.1246 32.9 80.3566 34.292 83.7406 34.292ZM83.7166 26.468C82.2526 26.468 81.2926 25.268 81.2926 23.42C81.2926 21.548 82.2526 20.348 83.7166 20.348C85.3486 20.348 86.2126 21.74 86.2126 23.396C86.2126 25.124 85.4206 26.468 83.7166 26.468Z" fill="#2F234F"/>
<path d="M97.5832 27.6439C95.8792 27.6439 94.9912 26.1559 94.9912 23.9239C94.9912 21.6919 95.8792 20.1799 97.5832 20.1799C99.2872 20.1799 100.199 21.6919 100.199 23.9239C100.199 26.1559 99.2872 27.6439 97.5832 27.6439ZM97.6072 30.4279C101.567 30.4279 104.159 27.6199 104.159 23.9239C104.159 20.2279 101.567 17.4199 97.6072 17.4199C93.6712 17.4199 91.0312 20.2279 91.0312 23.9239C91.0312 27.6199 93.6712 30.4279 97.6072 30.4279Z" fill="#2F234F"/>
<path d="M105.302 30.0438H109.214V17.7558H105.302V30.0438ZM105.302 16.0518H109.214V12.8838H105.302V16.0518Z" fill="#2F234F"/>
<path d="M110.911 34.1H114.823V28.772H114.871C115.639 29.804 116.767 30.428 118.351 30.428C121.567 30.428 123.703 27.884 123.703 23.9C123.703 20.204 121.711 17.396 118.447 17.396C116.767 17.396 115.567 18.14 114.727 19.244H114.655V17.756H110.911V34.1ZM117.343 27.404C115.663 27.404 114.703 26.036 114.703 24.044C114.703 22.052 115.567 20.54 117.271 20.54C118.951 20.54 119.743 21.932 119.743 24.044C119.743 26.132 118.831 27.404 117.343 27.404Z" fill="#2F234F"/>
<path d="M130.072 30.428C133.288 30.428 135.664 29.036 135.664 26.348C135.664 23.204 133.12 22.652 130.96 22.292C129.4 22.004 128.008 21.884 128.008 21.02C128.008 20.252 128.752 19.892 129.712 19.892C130.792 19.892 131.536 20.228 131.68 21.332H135.28C135.088 18.908 133.216 17.396 129.736 17.396C126.832 17.396 124.432 18.74 124.432 21.332C124.432 24.212 126.712 24.788 128.848 25.148C130.48 25.436 131.968 25.556 131.968 26.66C131.968 27.452 131.224 27.884 130.048 27.884C128.752 27.884 127.936 27.284 127.792 26.06H124.096C124.216 28.772 126.472 30.428 130.072 30.428Z" fill="#2F234F"/>
<path d="M140.978 30.4039C142.682 30.4039 143.762 29.7319 144.65 28.5319H144.722V30.0439H148.466V17.7559H144.554V24.6199C144.554 26.0839 143.738 27.0919 142.394 27.0919C141.146 27.0919 140.546 26.3479 140.546 25.0039V17.7559H136.658V25.8199C136.658 28.5559 138.146 30.4039 140.978 30.4039Z" fill="#2F234F"/>
<path d="M150.168 30.044H154.08V23.156C154.08 21.692 154.8 20.66 156.024 20.66C157.2 20.66 157.752 21.428 157.752 22.748V30.044H161.664V23.156C161.664 21.692 162.36 20.66 163.608 20.66C164.784 20.66 165.336 21.428 165.336 22.748V30.044H169.248V22.052C169.248 19.292 167.856 17.396 165.072 17.396C163.488 17.396 162.168 18.068 161.208 19.556H161.16C160.536 18.236 159.312 17.396 157.704 17.396C155.928 17.396 154.752 18.236 153.984 19.508H153.912V17.756H150.168V30.044Z" fill="#2F234F"/>
<path fill-rule="evenodd" clip-rule="evenodd" d="M20.1015 41.0439C31.1473 41.0439 40.1015 32.0896 40.1015 21.0439C40.1015 9.99824 31.1473 1.04395 20.1015 1.04395C9.05585 1.04395 0.101562 9.99824 0.101562 21.0439C0.101562 32.0896 9.05585 41.0439 20.1015 41.0439ZM23.1885 16.4965C24.8933 14.7916 24.8933 12.0275 23.1885 10.3226C21.4836 8.61772 18.7195 8.61772 17.0146 10.3226C15.3098 12.0275 15.3098 14.7916 17.0146 16.4965L20.1015 19.5834L23.1885 16.4965ZM24.649 24.1309C26.3539 25.8358 29.118 25.8358 30.8229 24.1309C32.5277 22.426 32.5277 19.6619 30.8229 17.957C29.118 16.2522 26.3539 16.2522 24.649 17.957L21.5621 21.044L24.649 24.1309ZM23.1885 31.7653C24.8933 30.0604 24.8933 27.2963 23.1885 25.5914L20.1015 22.5045L17.0146 25.5914C15.3098 27.2963 15.3098 30.0604 17.0146 31.7653C18.7195 33.4702 21.4836 33.4702 23.1885 31.7653ZM9.38019 24.1309C7.67535 22.426 7.67535 19.6619 9.38019 17.957C11.0851 16.2522 13.8492 16.2522 15.5541 17.957L18.641 21.044L15.5541 24.1309C13.8492 25.8358 11.0851 25.8358 9.38019 24.1309Z" fill="#7F57F1"/>
</g>
<defs>
<clipPath id="clip0_1050_95541">
<rect width="170" height="41" fill="white" transform="translate(0 0.720703)"/>
</clipPath>
</defs>
</svg>
