<svg width="140" height="31" viewBox="0 0 140 31" fill="none" xmlns="http://www.w3.org/2000/svg">
<path d="M22.4191 14.0915C22.0401 14.4728 21.7499 14.933 21.569 15.4392C21.3882 15.9455 21.3213 16.4854 21.373 17.0205L21.355 17.0025C21.4082 17.6324 21.3232 18.2662 21.1061 18.8599C20.889 19.4535 20.5451 19.9926 20.0982 20.4396C19.6512 20.8865 19.112 21.2306 18.5183 21.4476C17.9247 21.6647 17.2908 21.7497 16.661 21.6965L16.6791 21.7145C15.9257 21.6444 15.1689 21.8083 14.512 22.184C13.8552 22.5597 13.3302 23.1288 13.0087 23.8138C12.6872 24.4988 12.5847 25.2662 12.7153 26.0116C12.846 26.7569 13.2033 27.4438 13.7386 27.9786C14.2739 28.5134 14.9611 28.8701 15.7065 29C16.452 29.13 17.2193 29.0268 17.904 28.7047C18.5887 28.3825 19.1573 27.8571 19.5324 27.1999C19.9075 26.5427 20.0708 25.7859 20 25.0325L20.019 25.0505C19.9658 24.4207 20.0507 23.7868 20.2678 23.1931C20.4849 22.5995 20.829 22.0604 21.2759 21.6134C21.7229 21.1665 22.262 20.8224 22.8556 20.6054C23.4494 20.3883 24.0831 20.3033 24.713 20.3565L24.694 20.3385C25.3095 20.3938 25.929 20.2929 26.4951 20.0451C27.0611 19.7973 27.5554 19.4106 27.9322 18.9209C28.309 18.4312 28.5562 17.8542 28.6507 17.2436C28.7451 16.6329 28.684 16.0083 28.4727 15.4275C28.2615 14.8468 27.9071 14.3288 27.4424 13.9215C26.9777 13.5142 26.4178 13.2308 25.8144 13.0976C25.2109 12.9644 24.5837 12.9856 23.9907 13.1593C23.3976 13.3331 22.8582 13.6537 22.4221 14.0915H22.4191Z" fill="white"/>
<path d="M15.0422 19.3569L15.0232 19.3389C15.5585 19.3928 16.0991 19.3271 16.606 19.1465C17.1128 18.9659 17.5732 18.675 17.9538 18.2947C18.3343 17.9144 18.6257 17.4542 18.8066 16.9475C18.9876 16.4408 19.0537 15.9003 19.0002 15.3649L19.0192 15.3829C18.966 14.753 19.051 14.1192 19.268 13.5255C19.4851 12.9319 19.8292 12.3928 20.2761 11.9458C20.7231 11.4989 21.2622 11.1548 21.8558 10.9378C22.4495 10.7207 23.0833 10.6358 23.7132 10.6889L23.6942 10.6709C24.4477 10.7417 25.2046 10.5783 25.8618 10.203C26.5191 9.82778 27.0445 9.25891 27.3665 8.57404C27.6885 7.88918 27.7914 7.12165 27.6612 6.37614C27.531 5.63063 27.174 4.94345 26.6388 4.40831C26.1037 3.87318 25.4165 3.51614 24.671 3.38592C23.9255 3.25569 23.158 3.3586 22.4731 3.68062C21.7882 4.00263 21.2194 4.52808 20.8441 5.18529C20.4688 5.84249 20.3054 6.59946 20.3762 7.35294L20.3582 7.33394C20.4115 7.96383 20.3267 8.59777 20.1097 9.19149C19.8927 9.78521 19.5486 10.3244 19.1017 10.7714C18.6547 11.2183 18.1155 11.5624 17.5218 11.7794C16.928 11.9964 16.2941 12.0812 15.6642 12.0279L15.6822 12.0469C15.1469 11.993 14.6062 12.0587 14.0994 12.2393C13.5926 12.4198 13.1322 12.7108 12.7516 13.0911C12.371 13.4714 12.0797 13.9316 11.8987 14.4383C11.7178 14.945 11.6517 15.4855 11.7052 16.0209L11.6872 16.0029C11.7402 16.6327 11.6551 17.2665 11.438 17.8601C11.2208 18.4536 10.8768 18.9927 10.4299 19.4396C9.98291 19.8865 9.44387 20.2305 8.85031 20.4477C8.25675 20.6648 7.62296 20.7499 6.99315 20.6969L7.01115 20.7149C6.25767 20.6441 5.5007 20.8075 4.84349 21.1828C4.18629 21.5581 3.66084 22.1269 3.33883 22.8118C3.01681 23.4967 2.91389 24.2642 3.04412 25.0097C3.17435 25.7552 3.53139 26.4424 4.06652 26.9775C4.60166 27.5127 5.28884 27.8697 6.03435 27.9999C6.77986 28.1301 7.54739 28.0272 8.23226 27.7052C8.91712 27.3832 9.48599 26.8578 9.86125 26.2006C10.2366 25.5433 10.4 24.7864 10.3292 24.0329L10.3482 24.0509C10.295 23.421 10.38 22.7872 10.5971 22.1935C10.8141 21.5999 11.1582 21.0608 11.6051 20.6138C12.0521 20.1669 12.5912 19.8228 13.1848 19.6058C13.7785 19.3887 14.4123 19.3037 15.0422 19.3569Z" fill="white"/>
<path d="M8.34021 17.3496C8.71923 16.9684 9.00941 16.5082 9.19005 16.0019C9.37069 15.4956 9.43733 14.9556 9.38521 14.4206L9.4042 14.4386C9.351 13.8086 9.43596 13.1745 9.65317 12.5807C9.87038 11.9869 10.2146 11.4477 10.6618 11.0007C11.109 10.5538 11.6483 10.2098 12.2422 9.99282C12.8361 9.77586 13.4702 9.69116 14.1002 9.74464L14.0812 9.72664C14.8344 9.79721 15.5911 9.63372 16.248 9.25848C16.9049 8.88325 17.43 8.31452 17.7519 7.62987C18.0737 6.94521 18.1765 6.17796 18.0463 5.43273C17.9161 4.6875 17.5591 4.00058 17.0242 3.46564C16.4893 2.9307 15.8023 2.57378 15.0571 2.44356C14.3119 2.31333 13.5446 2.41615 12.86 2.73797C12.1753 3.05979 11.6066 3.58496 11.2314 4.24186C10.8561 4.89876 10.6926 5.65542 10.7632 6.40864L10.7452 6.39064C10.7984 7.02049 10.7134 7.65436 10.4963 8.248C10.2792 8.84164 9.93523 9.38075 9.48827 9.82771C9.04132 10.2747 8.5022 10.6187 7.90856 10.8357C7.31492 11.0528 6.68106 11.1378 6.05121 11.0846L6.06921 11.1026C5.45378 11.0474 4.83437 11.1485 4.26839 11.3964C3.70241 11.6443 3.20816 12.0311 2.83145 12.5209C2.45474 13.0106 2.20776 13.5876 2.11338 14.1982C2.01901 14.8089 2.0803 15.4335 2.29157 16.0141C2.50284 16.5948 2.85727 17.1127 3.322 17.5199C3.78673 17.9272 4.34673 18.2105 4.95011 18.3437C5.55348 18.4768 6.18071 18.4555 6.77368 18.2818C7.36664 18.108 7.90614 17.7874 8.3422 17.3496H8.34021Z" fill="white"/>
<path d="M39.3174 7.37598H42.2874V21.829H39.3174V7.37598Z" fill="white"/>
<path d="M43.9689 16.8798C43.9648 15.8412 44.269 14.8246 44.843 13.959C45.417 13.0934 46.235 12.4176 47.1934 12.0173C48.1518 11.6169 49.2074 11.51 50.2266 11.7101C51.2458 11.9102 52.1827 12.4082 52.9186 13.1412C53.6545 13.8741 54.1563 14.809 54.3605 15.8274C54.5647 16.8458 54.462 17.9019 54.0655 18.8619C53.669 19.8218 52.9965 20.6426 52.1332 21.22C51.2698 21.7975 50.2546 22.1058 49.2159 22.1058C48.5265 22.1137 47.8424 21.984 47.2036 21.7244C46.5648 21.4648 45.9842 21.0805 45.4957 20.594C45.0071 20.1074 44.6205 19.5283 44.3584 18.8906C44.0962 18.2529 43.9638 17.5693 43.9689 16.8798ZM51.4929 16.8798C51.4805 16.4321 51.3364 15.998 51.0787 15.6317C50.8209 15.2655 50.4609 14.9833 50.0437 14.8206C49.6264 14.6578 49.1705 14.6216 48.7328 14.7166C48.2951 14.8116 47.8951 15.0334 47.5828 15.3545C47.2706 15.6755 47.0598 16.0815 46.9771 16.5217C46.8943 16.9618 46.943 17.4166 47.1173 17.8292C47.2916 18.2418 47.5836 18.5938 47.9568 18.8413C48.3301 19.0888 48.7681 19.2208 49.2159 19.2208C49.5226 19.229 49.8277 19.1735 50.112 19.0579C50.3962 18.9423 50.6534 18.7691 50.8673 18.5492C51.0812 18.3292 51.2473 18.0673 51.3549 17.78C51.4626 17.4927 51.5096 17.1862 51.4929 16.8798Z" fill="white"/>
<path d="M66.2999 11.9295V21.3295C66.2999 24.6555 63.7059 26.0615 61.0729 26.0615C60.1459 26.1309 59.2176 25.9436 58.3899 25.5203C57.5623 25.0969 56.8672 24.4538 56.3809 23.6615L58.9149 22.1965C59.1193 22.6095 59.445 22.9502 59.8483 23.1731C60.2517 23.3959 60.7135 23.4903 61.1719 23.4435C61.4649 23.4841 61.7633 23.4583 62.045 23.368C62.3266 23.2777 62.5844 23.1252 62.7992 22.9219C63.014 22.7185 63.1803 22.4695 63.2859 22.1931C63.3914 21.9168 63.4334 21.6203 63.4089 21.3255V20.4205C63.0611 20.846 62.6185 21.1841 62.1164 21.4076C61.6143 21.6311 61.0669 21.7338 60.5179 21.7075C59.2117 21.6663 57.9728 21.1185 57.0634 20.1799C56.154 19.2414 55.6455 17.9858 55.6455 16.679C55.6455 15.3722 56.154 14.1166 57.0634 13.1781C57.9728 12.2395 59.2117 11.6917 60.5179 11.6505C61.0669 11.6242 61.6143 11.7269 62.1164 11.9504C62.6185 12.1739 63.0611 12.512 63.4089 12.9375V11.9275L66.2999 11.9295ZM63.4099 16.6805C63.4299 16.2019 63.3061 15.7282 63.0546 15.3205C62.8031 14.9127 62.4353 14.5896 61.9986 14.3927C61.5619 14.1957 61.0763 14.134 60.6042 14.2154C60.1321 14.2968 59.6952 14.5176 59.3496 14.8495C59.0041 15.1813 58.7658 15.6089 58.6653 16.0773C58.5649 16.5457 58.6069 17.0335 58.7861 17.4778C58.9652 17.9221 59.2732 18.3027 59.6704 18.5705C60.0676 18.8383 60.5359 18.9811 61.0149 18.9805C61.327 19.0023 61.6401 18.9585 61.9342 18.8519C62.2283 18.7453 62.4968 18.5782 62.7224 18.3616C62.948 18.1449 63.1258 17.8834 63.2442 17.5938C63.3626 17.3043 63.4191 16.9932 63.4099 16.6805Z" fill="white"/>
<path d="M67.9816 16.8798C67.9775 15.8412 68.2816 14.8246 68.8557 13.959C69.4297 13.0934 70.2477 12.4176 71.2061 12.0173C72.1645 11.6169 73.2201 11.51 74.2393 11.7101C75.2585 11.9102 76.1954 12.4082 76.9313 13.1412C77.6672 13.8741 78.169 14.809 78.3732 15.8274C78.5774 16.8458 78.4747 17.9019 78.0782 18.8619C77.6817 19.8218 77.0092 20.6426 76.1459 21.22C75.2825 21.7975 74.2673 22.1058 73.2286 22.1058C72.5392 22.1137 71.855 21.984 71.2163 21.7244C70.5775 21.4648 69.9969 21.0805 69.5084 20.594C69.0198 20.1074 68.6332 19.5283 68.3711 18.8906C68.1089 18.2529 67.9765 17.5693 67.9816 16.8798ZM75.5056 16.8798C75.4932 16.4321 75.3491 15.998 75.0914 15.6317C74.8336 15.2655 74.4736 14.9833 74.0564 14.8206C73.6391 14.6578 73.1831 14.6216 72.7455 14.7166C72.3078 14.8116 71.9078 15.0334 71.5955 15.3545C71.2833 15.6755 71.0725 16.0815 70.9897 16.5217C70.9069 16.9618 70.9557 17.4166 71.13 17.8292C71.3043 18.2418 71.5963 18.5938 71.9695 18.8413C72.3428 19.0888 72.7807 19.2208 73.2286 19.2208C73.5353 19.229 73.8404 19.1735 74.1246 19.0579C74.4089 18.9423 74.6661 18.7691 74.88 18.5492C75.0939 18.3292 75.26 18.0673 75.3676 17.78C75.4753 17.4927 75.5223 17.1862 75.5056 16.8798Z" fill="white"/>
<path d="M79.8613 9.27663C79.8613 8.92418 79.9658 8.57965 80.1616 8.28661C80.3574 7.99356 80.6358 7.76515 80.9614 7.63028C81.287 7.4954 81.6453 7.46011 81.991 7.52887C82.3366 7.59763 82.6542 7.76735 82.9034 8.01657C83.1526 8.26578 83.3223 8.5833 83.3911 8.92898C83.4598 9.27465 83.4245 9.63295 83.2897 9.95857C83.1548 10.2842 82.9264 10.5625 82.6333 10.7583C82.3403 10.9541 81.9958 11.0586 81.6433 11.0586C81.1722 11.0539 80.7216 10.8647 80.3884 10.5315C80.0553 10.1983 79.866 9.74779 79.8613 9.27663ZM80.1613 11.9296H83.1323V21.8296H80.1573L80.1613 11.9296Z" fill="white"/>
<path d="M95.9557 16.88C95.99 17.5343 95.8947 18.1889 95.6751 18.8062C95.4556 19.4235 95.1162 19.9913 94.6764 20.477C94.2367 20.9626 93.7052 21.3566 93.1127 21.6362C92.5201 21.9157 91.8782 22.0754 91.2237 22.106C90.6733 22.136 90.1232 22.0432 89.6131 21.8343C89.103 21.6253 88.6459 21.3055 88.2747 20.898V25.789H85.3047V11.93H88.2747V12.86C88.646 12.4528 89.1033 12.1332 89.6133 11.9245C90.1234 11.7157 90.6734 11.623 91.2237 11.653C91.8783 11.6835 92.5204 11.8431 93.1131 12.1227C93.7058 12.4023 94.2373 12.7963 94.6771 13.2821C95.1169 13.7679 95.4563 14.3359 95.6757 14.9534C95.8951 15.5708 95.9903 16.2256 95.9557 16.88ZM92.9857 16.88C92.9741 16.4167 92.8261 15.9671 92.5602 15.5874C92.2943 15.2078 91.9224 14.915 91.491 14.7458C91.0595 14.5765 90.5877 14.5382 90.1346 14.6358C89.6815 14.7333 89.2673 14.9623 88.9437 15.2941C88.6201 15.626 88.4016 16.0458 88.3155 16.5013C88.2294 16.9567 88.2795 17.4273 88.4596 17.8544C88.6396 18.2815 88.9417 18.6459 89.3279 18.9022C89.7141 19.1584 90.1672 19.2951 90.6307 19.295C90.9489 19.3092 91.2665 19.2559 91.5627 19.1387C91.8588 19.0216 92.1269 18.8431 92.3492 18.6151C92.5716 18.387 92.7432 18.1146 92.8529 17.8156C92.9626 17.5166 93.0079 17.1977 92.9857 16.88Z" fill="white"/>
<path d="M105.121 18.8586C105.121 21.1356 103.142 22.1056 101.004 22.1056C100.14 22.1838 99.2728 22.0012 98.5139 21.5811C97.755 21.1611 97.1396 20.5231 96.7471 19.7496L99.3201 18.2846C99.4242 18.6421 99.6478 18.9532 99.9535 19.1657C100.259 19.3783 100.629 19.4796 101 19.4526C101.712 19.4526 102.069 19.2346 102.069 18.8396C102.069 17.7496 97.1981 18.3246 97.1981 14.8996C97.1981 12.7406 99.0201 11.6526 101.079 11.6526C101.853 11.6281 102.619 11.8117 103.298 12.1842C103.977 12.5568 104.544 13.1046 104.939 13.7706L102.405 15.1366C102.294 14.8773 102.109 14.6564 101.873 14.5015C101.637 14.3466 101.361 14.2646 101.079 14.2656C100.564 14.2656 100.247 14.4656 100.247 14.8196C100.251 15.9486 105.121 15.1956 105.121 18.8586Z" fill="white"/>
<path d="M115.97 11.9297V21.8297H113V20.8987C112.657 21.3095 112.222 21.6332 111.73 21.8432C111.238 22.0532 110.704 22.1435 110.17 22.1067C108.17 22.1067 106.47 20.6817 106.47 18.0067V11.9297H109.44V17.5717C109.415 17.8075 109.442 18.0459 109.519 18.2702C109.595 18.4946 109.72 18.6996 109.884 18.8709C110.048 19.0422 110.247 19.1757 110.468 19.2622C110.688 19.3487 110.925 19.3861 111.162 19.3717C112.251 19.3717 113.003 18.7387 113.003 17.3327V11.9327L115.97 11.9297Z" fill="white"/>
<path d="M133 15.7504V21.8284H130.03V16.0074C130.03 15.0174 129.555 14.3844 128.605 14.3844C127.615 14.3844 127.06 15.0774 127.06 16.2454V21.8284H124.091V16.0074C124.091 15.0174 123.616 14.3844 122.665 14.3844C121.675 14.3844 121.121 15.0774 121.121 16.2454V21.8284H118.151V11.9284H121.121V12.8384C121.429 12.4347 121.833 12.1145 122.296 11.9072C122.76 11.6998 123.268 11.6119 123.774 11.6514C124.282 11.6265 124.788 11.7338 125.243 11.9627C125.697 12.1915 126.084 12.5343 126.367 12.9574C126.696 12.5147 127.132 12.1627 127.634 11.9343C128.136 11.7059 128.688 11.6086 129.238 11.6514C131.511 11.6524 133 13.2754 133 15.7504Z" fill="white"/>
<path d="M135.512 11.8689C136.729 11.8689 137.716 10.8821 137.716 9.66494C137.716 8.4477 136.729 7.46094 135.512 7.46094C134.295 7.46094 133.308 8.4477 133.308 9.66494C133.308 10.8821 134.295 11.8689 135.512 11.8689Z" fill="white"/>
</svg>
