<svg width="170" height="42" viewBox="0 0 170 42" fill="none" xmlns="http://www.w3.org/2000/svg">
<g clip-path="url(#clip0_1050_95518)">
<path d="M51.8604 28.8587H63.8124V25.2587H56.1084V11.6987H51.8604V28.8587Z" fill="white"/>
<path d="M70.8928 26.4589C69.1888 26.4589 68.3008 24.9709 68.3008 22.7389C68.3008 20.5069 69.1888 18.9949 70.8928 18.9949C72.5968 18.9949 73.5088 20.5069 73.5088 22.7389C73.5088 24.9709 72.5968 26.4589 70.8928 26.4589ZM70.9168 29.2429C74.8768 29.2429 77.4688 26.4349 77.4688 22.7389C77.4688 19.0429 74.8768 16.2349 70.9168 16.2349C66.9808 16.2349 64.3408 19.0429 64.3408 22.7389C64.3408 26.4349 66.9808 29.2429 70.9168 29.2429Z" fill="white"/>
<path d="M84.3236 33.1069C86.1476 33.1069 87.7556 32.6989 88.8356 31.7389C89.8196 30.8509 90.4676 29.5069 90.4676 27.6589V16.5709H86.7236V17.8909H86.6756C85.9556 16.8589 84.8516 16.2109 83.2196 16.2109C80.1716 16.2109 78.0596 18.7549 78.0596 22.3549C78.0596 26.1229 80.6276 28.1869 83.3876 28.1869C84.8756 28.1869 85.8116 27.5869 86.5316 26.7709H86.6276V27.9949C86.6276 29.4829 85.9316 30.3469 84.2756 30.3469C82.9796 30.3469 82.3316 29.7949 82.1156 29.1469H78.3236C78.7076 31.7149 80.9396 33.1069 84.3236 33.1069ZM84.2996 25.2829C82.8356 25.2829 81.8756 24.0829 81.8756 22.2349C81.8756 20.3629 82.8356 19.1629 84.2996 19.1629C85.9316 19.1629 86.7956 20.5549 86.7956 22.2109C86.7956 23.9389 86.0036 25.2829 84.2996 25.2829Z" fill="white"/>
<path d="M98.1663 26.4589C96.4623 26.4589 95.5743 24.9709 95.5743 22.7389C95.5743 20.5069 96.4623 18.9949 98.1663 18.9949C99.8703 18.9949 100.782 20.5069 100.782 22.7389C100.782 24.9709 99.8703 26.4589 98.1663 26.4589ZM98.1903 29.2429C102.15 29.2429 104.742 26.4349 104.742 22.7389C104.742 19.0429 102.15 16.2349 98.1903 16.2349C94.2543 16.2349 91.6143 19.0429 91.6143 22.7389C91.6143 26.4349 94.2543 29.2429 98.1903 29.2429Z" fill="white"/>
<path d="M105.884 28.8587H109.796V16.5707H105.884V28.8587ZM105.884 14.8667H109.796V11.6987H105.884V14.8667Z" fill="white"/>
<path d="M111.494 32.9149H115.406V27.5869H115.454C116.222 28.6189 117.35 29.2429 118.934 29.2429C122.15 29.2429 124.286 26.6989 124.286 22.7149C124.286 19.0189 122.294 16.2109 119.03 16.2109C117.35 16.2109 116.15 16.9549 115.31 18.0589H115.238V16.5709H111.494V32.9149ZM117.926 26.2189C116.246 26.2189 115.286 24.8509 115.286 22.8589C115.286 20.8669 116.15 19.3549 117.854 19.3549C119.534 19.3549 120.326 20.7469 120.326 22.8589C120.326 24.9469 119.414 26.2189 117.926 26.2189Z" fill="white"/>
<path d="M130.655 29.2429C133.871 29.2429 136.247 27.8509 136.247 25.1629C136.247 22.0189 133.703 21.4669 131.543 21.1069C129.983 20.8189 128.591 20.6989 128.591 19.8349C128.591 19.0669 129.335 18.7069 130.295 18.7069C131.375 18.7069 132.119 19.0429 132.263 20.1469H135.863C135.671 17.7229 133.799 16.2109 130.319 16.2109C127.415 16.2109 125.015 17.5549 125.015 20.1469C125.015 23.0269 127.295 23.6029 129.431 23.9629C131.063 24.2509 132.551 24.3709 132.551 25.4749C132.551 26.2669 131.807 26.6989 130.631 26.6989C129.335 26.6989 128.519 26.0989 128.375 24.8749H124.679C124.799 27.5869 127.055 29.2429 130.655 29.2429Z" fill="white"/>
<path d="M141.561 29.2188C143.265 29.2188 144.345 28.5468 145.233 27.3468H145.305V28.8588H149.049V16.5708H145.137V23.4348C145.137 24.8988 144.321 25.9068 142.977 25.9068C141.729 25.9068 141.129 25.1628 141.129 23.8188V16.5708H137.241V24.6348C137.241 27.3708 138.729 29.2188 141.561 29.2188Z" fill="white"/>
<path d="M150.75 28.8589H154.662V21.9709C154.662 20.5069 155.382 19.4749 156.606 19.4749C157.782 19.4749 158.334 20.2429 158.334 21.5629V28.8589H162.246V21.9709C162.246 20.5069 162.942 19.4749 164.19 19.4749C165.366 19.4749 165.918 20.2429 165.918 21.5629V28.8589H169.83V20.8669C169.83 18.1069 168.438 16.2109 165.654 16.2109C164.07 16.2109 162.75 16.8829 161.79 18.3709H161.742C161.118 17.0509 159.894 16.2109 158.286 16.2109C156.51 16.2109 155.334 17.0509 154.566 18.3229H154.494V16.5709H150.75V28.8589Z" fill="white"/>
<path fill-rule="evenodd" clip-rule="evenodd" d="M20.6836 40.8589C31.7293 40.8589 40.6836 31.9046 40.6836 20.8589C40.6836 9.8132 31.7293 0.858887 20.6836 0.858887C9.63788 0.858887 0.683594 9.8132 0.683594 20.8589C0.683594 31.9046 9.63788 40.8589 20.6836 40.8589ZM26.9229 10.1757C27.2266 9.09694 26.1797 8.45902 25.2236 9.14019L11.8767 18.6485C10.8398 19.3872 11.0029 20.8589 12.1217 20.8589H15.6363V20.8317H22.4861L16.9048 22.801L14.4443 31.5421C14.1406 32.6209 15.1874 33.2588 16.1436 32.5776L29.4905 23.0694C30.5274 22.3307 30.3642 20.8589 29.2455 20.8589H23.9157L26.9229 10.1757Z" fill="#F15757"/>
</g>
<defs>
<clipPath id="clip0_1050_95518">
<rect width="170" height="41" fill="white" transform="translate(0 0.720703)"/>
</clipPath>
</defs>
</svg>
