<svg width="138" height="31" viewBox="0 0 138 31" fill="none" xmlns="http://www.w3.org/2000/svg">
<path d="M20.99 24.4798L3.05 12.1048C1.232 10.8508 1.85 8.23981 4.117 7.62581L23.184 2.45081C23.5879 2.30507 24.0207 2.25776 24.4466 2.31281C24.8724 2.36786 25.279 2.52368 25.6326 2.76734C25.9861 3.011 26.2765 3.33547 26.4795 3.71382C26.6825 4.09217 26.7924 4.51349 26.8 4.94281L25.67 22.4918C25.536 24.5748 22.808 25.7338 20.99 24.4798Z" fill="#E9327C"/>
<path d="M15.2998 27.5346L4.73074 6.86562C4.48914 6.39278 4.38283 5.86239 4.42352 5.33296C4.46421 4.80353 4.65033 4.29562 4.96134 3.86525C5.27236 3.43488 5.69619 3.09876 6.1861 2.89396C6.67601 2.68916 7.21296 2.62364 7.73774 2.70463L27.3248 5.72762C27.7757 5.79723 28.2037 5.97288 28.5736 6.24013C28.9434 6.50739 29.2445 6.85861 29.4522 7.26492C29.6598 7.67123 29.7681 8.12102 29.768 8.57732C29.7679 9.03361 29.6595 9.48338 29.4518 9.88962L20.4288 27.5356C20.1865 28.0071 19.8189 28.4027 19.3664 28.6788C18.9139 28.955 18.3941 29.101 17.864 29.1009C17.3339 29.1008 16.8141 28.9546 16.3617 28.6783C15.9093 28.4019 15.5419 28.0062 15.2998 27.5346Z" fill="#1DACE3"/>
<path d="M26.752 5.63884L16.988 4.13184L5 7.38684L9.785 16.7478L20.99 24.4798C21.2372 24.6485 21.5091 24.7777 21.796 24.8628L26.052 16.5398L26.752 5.63884Z" fill="#001A49"/>
<path d="M76.209 8.05472C76.209 7.69179 76.3166 7.33702 76.5182 7.03525C76.7199 6.73349 77.0065 6.49829 77.3418 6.3594C77.6771 6.22052 78.046 6.18418 78.402 6.25498C78.7579 6.32579 79.0849 6.50056 79.3415 6.75718C79.5982 7.01381 79.7729 7.34078 79.8437 7.69673C79.9145 8.05269 79.8782 8.42165 79.7393 8.75695C79.6004 9.09225 79.3652 9.37884 79.0635 9.58047C78.7617 9.7821 78.4069 9.88972 78.044 9.88972C77.5588 9.88478 77.095 9.68986 76.7519 9.3468C76.4089 9.00373 76.2139 8.53986 76.209 8.05472ZM76.515 10.7867H79.574V20.9807H76.515V10.7867Z" fill="#001A49"/>
<path d="M92.7834 15.8838C92.819 16.5576 92.7209 17.2318 92.495 17.8676C92.269 18.5033 91.9196 19.0882 91.4669 19.5885C91.0141 20.0887 90.4669 20.4945 89.8567 20.7826C89.2465 21.0706 88.5854 21.2352 87.9114 21.2668C87.3445 21.2976 86.7778 21.202 86.2523 20.9869C85.7269 20.7717 85.2559 20.4424 84.8734 20.0228V25.0588H81.8154V10.7868H84.8734V11.7448C85.256 11.3253 85.727 10.9962 86.2525 10.7812C86.7779 10.5663 87.3446 10.4708 87.9114 10.5018C88.5854 10.5333 89.2464 10.6977 89.8566 10.9856C90.4668 11.2736 91.014 11.6793 91.4668 12.1795C91.9196 12.6797 92.269 13.2644 92.495 13.9002C92.7209 14.5359 92.819 15.21 92.7834 15.8838ZM89.7254 15.8838C89.7134 15.4065 89.5609 14.9434 89.287 14.5523C89.0131 14.1613 88.6299 13.8597 88.1855 13.6854C87.741 13.511 87.255 13.4717 86.7883 13.5722C86.3216 13.6727 85.8948 13.9086 85.5615 14.2504C85.2282 14.5922 85.0031 15.0248 84.9144 15.4939C84.8257 15.963 84.8774 16.4479 85.0629 16.8878C85.2484 17.3277 85.5595 17.7031 85.9573 17.9671C86.3552 18.2311 86.822 18.3718 87.2994 18.3718C87.6273 18.3866 87.9545 18.3318 88.2597 18.2112C88.5649 18.0905 88.8411 17.9066 89.0702 17.6717C89.2993 17.4367 89.4761 17.156 89.5891 16.8478C89.702 16.5397 89.7485 16.2111 89.7254 15.8838Z" fill="#001A49"/>
<path d="M102.223 17.9208C102.223 20.2658 100.184 21.2648 97.9816 21.2648C97.0921 21.3453 96.1988 21.157 95.4174 20.7243C94.636 20.2917 94.0025 19.6345 93.5986 18.8378L96.2486 17.3298C96.3564 17.6981 96.5872 18.0182 96.9027 18.2366C97.2181 18.455 97.599 18.5585 97.9816 18.5298C98.7156 18.5298 99.0816 18.3048 99.0816 17.8978C99.0816 16.7758 94.0666 17.3678 94.0666 13.8398C94.0666 11.6178 95.9416 10.4968 98.0666 10.4968C98.8637 10.4718 99.6528 10.6609 100.352 11.0445C101.052 11.4281 101.635 11.9921 102.042 12.6778L99.4326 14.0848C99.3185 13.8172 99.1281 13.5891 98.8852 13.4291C98.6422 13.269 98.3575 13.1841 98.0666 13.1848C97.5366 13.1848 97.2106 13.3848 97.2106 13.7558C97.2076 14.9258 102.223 14.1508 102.223 17.9208Z" fill="#001A49"/>
<path d="M113.4 10.7866V20.9806H110.342V20.0206C109.989 20.4435 109.54 20.7767 109.033 20.993C108.527 21.2092 107.976 21.3023 107.426 21.2646C105.367 21.2646 103.614 19.7966 103.614 17.0436V10.7866H106.672V16.5976C106.646 16.8406 106.674 17.0863 106.753 17.3175C106.832 17.5487 106.96 17.76 107.129 17.9366C107.298 18.1132 107.503 18.2508 107.73 18.3399C107.958 18.4291 108.202 18.4675 108.446 18.4526C109.567 18.4526 110.346 17.8006 110.346 16.3526V10.7866H113.4Z" fill="#001A49"/>
<path d="M130.928 14.7205V20.9805H127.87V14.9865C127.87 13.9675 127.38 13.3145 126.402 13.3145C125.382 13.3145 124.812 14.0285 124.812 15.2315V20.9805H121.753V14.9865C121.753 13.9675 121.264 13.3145 120.285 13.3145C119.266 13.3145 118.695 14.0285 118.695 15.2315V20.9805H115.637V10.7865H118.7V11.7205C119.017 11.3046 119.433 10.9748 119.91 10.7611C120.387 10.5475 120.911 10.4568 121.432 10.4975C121.955 10.4719 122.477 10.5823 122.945 10.8181C123.413 11.0538 123.812 11.4067 124.103 11.8425C124.442 11.3866 124.891 11.024 125.408 10.7888C125.925 10.5535 126.494 10.4533 127.06 10.4975C129.4 10.5015 130.928 12.1725 130.928 14.7205Z" fill="#001A49"/>
<path d="M133.519 10.7236C134.773 10.7236 135.789 9.70728 135.789 8.45359C135.789 7.19991 134.773 6.18359 133.519 6.18359C132.265 6.18359 131.249 7.19991 131.249 8.45359C131.249 9.70728 132.265 10.7236 133.519 10.7236Z" fill="#001A49"/>
<path d="M34.457 6.09766H37.516V20.9807H34.457V6.09766ZM39.248 15.8837C39.2447 14.8149 39.5585 13.7692 40.1498 12.879C40.7411 11.9887 41.5833 11.2939 42.5697 10.8826C43.5562 10.4713 44.6424 10.3619 45.6911 10.5684C46.7397 10.7748 47.7035 11.2877 48.4604 12.0423C49.2173 12.7968 49.7333 13.7589 49.943 14.8069C50.1527 15.8549 50.0468 16.9415 49.6386 17.9292C49.2304 18.9169 48.5383 19.7613 47.6499 20.3554C46.7615 20.9495 45.7168 21.2667 44.648 21.2667C43.9382 21.2742 43.234 21.1403 42.5765 20.8727C41.9191 20.6051 41.3215 20.2091 40.8188 19.708C40.316 19.2068 39.9182 18.6105 39.6485 17.9539C39.3788 17.2973 39.2427 16.5935 39.248 15.8837ZM46.996 15.8837C46.984 15.4226 46.8364 14.9754 46.5715 14.5979C46.3067 14.2204 45.9364 13.9293 45.507 13.7611C45.0775 13.593 44.6081 13.5551 44.1573 13.6524C43.7065 13.7496 43.2944 13.9777 42.9725 14.3079C42.6506 14.6382 42.4333 15.056 42.3476 15.5091C42.262 15.9623 42.3118 16.4306 42.491 16.8556C42.6701 17.2805 42.9706 17.6432 43.3548 17.8983C43.739 18.1534 44.1899 18.2895 44.651 18.2897C44.9668 18.2987 45.2811 18.2421 45.5739 18.1236C45.8668 18.0052 46.1319 17.8273 46.3526 17.6012C46.5733 17.3752 46.7448 17.1059 46.8562 16.8103C46.9676 16.5146 47.0166 16.1991 47 15.8837H46.996ZM62.245 10.7837V20.4687C62.245 23.8937 59.574 25.3407 56.863 25.3407C55.9088 25.4127 54.9531 25.2206 54.1007 24.7854C53.2484 24.3503 52.5323 23.6888 52.031 22.8737L54.64 21.3647C54.8506 21.7901 55.1861 22.1411 55.6016 22.3708C56.0171 22.6004 56.4927 22.6977 56.965 22.6497C57.2665 22.6908 57.5733 22.6638 57.8629 22.5705C58.1525 22.4772 58.4174 22.3202 58.6382 22.1108C58.8589 21.9015 59.0298 21.6453 59.1383 21.361C59.2468 21.0768 59.2901 20.7718 59.265 20.4687V19.5307C58.9068 19.9687 58.4509 20.3167 57.934 20.5468C57.417 20.7769 56.8533 20.8827 56.288 20.8557C54.9425 20.8138 53.666 20.2499 52.729 19.2833C51.792 18.3167 51.268 17.0234 51.268 15.6772C51.268 14.3309 51.792 13.0376 52.729 12.071C53.666 11.1044 54.9425 10.5405 56.288 10.4987C56.8533 10.4716 57.417 10.5774 57.934 10.8075C58.4509 11.0376 58.9068 11.3856 59.265 11.8237V10.7837H62.245ZM59.269 15.6767C59.2892 15.1843 59.1616 14.6972 58.9027 14.2779C58.6438 13.8586 58.2654 13.5263 57.8161 13.3238C57.3669 13.1213 56.8673 13.0578 56.3817 13.1415C55.8961 13.2252 55.4466 13.4522 55.091 13.7934C54.7354 14.1346 54.49 14.5743 54.3864 15.056C54.2827 15.5378 54.3255 16.0395 54.5093 16.4968C54.693 16.954 55.0094 17.3458 55.4176 17.6218C55.8258 17.8978 56.3073 18.0454 56.8 18.0457C57.1213 18.0682 57.4438 18.0233 57.7467 17.9138C58.0496 17.8043 58.3262 17.6326 58.5588 17.4097C58.7913 17.1869 58.9747 16.9178 59.097 16.6199C59.2193 16.3219 59.2779 16.0016 59.269 15.6797V15.6767ZM63.977 15.8767C63.9737 14.8079 64.2875 13.7622 64.8788 12.872C65.4701 11.9817 66.3123 11.2869 67.2987 10.8756C68.2852 10.4643 69.3714 10.3549 70.4201 10.5614C71.4687 10.7678 72.4324 11.2807 73.1894 12.0353C73.9463 12.7898 74.4623 13.7519 74.672 14.7999C74.8817 15.8479 74.7758 16.9345 74.3676 17.9222C73.9594 18.9099 73.2673 19.7543 72.3789 20.3484C71.4905 20.9425 70.4458 21.2597 69.377 21.2597C68.6678 21.2672 67.9642 21.1335 67.3072 20.8663C66.6502 20.5992 66.0529 20.2038 65.5503 19.7034C65.0476 19.203 64.6497 18.6076 64.3796 17.9517C64.1094 17.2959 63.9726 16.5929 63.977 15.8837V15.8767ZM71.725 15.8767C71.7132 15.4154 71.5656 14.9678 71.3008 14.5899C71.0359 14.2121 70.6654 13.9208 70.2358 13.7524C69.8061 13.584 69.3364 13.5461 68.8853 13.6434C68.4342 13.7406 68.0218 13.9688 67.6998 14.2992C67.3777 14.6297 67.1602 15.0478 67.0746 15.5012C66.9889 15.9546 67.0389 16.4233 67.2182 16.8484C67.3976 17.2736 67.6983 17.6364 68.0828 17.8916C68.4674 18.1467 68.9186 18.2827 69.38 18.2827C69.6949 18.291 70.008 18.2343 70.2999 18.116C70.5918 17.9977 70.8561 17.8203 71.0763 17.5951C71.2964 17.3699 71.4677 17.1016 71.5793 16.8071C71.691 16.5126 71.7406 16.1982 71.725 15.8837V15.8767Z" fill="#001A49"/>
</svg>
