<svg width="24" height="25" viewBox="0 0 24 25" fill="none" xmlns="http://www.w3.org/2000/svg">
<path d="M20.4696 2.72084H3.52957C3.33915 2.7182 3.15007 2.75309 2.97314 2.82353C2.7962 2.89396 2.63487 2.99856 2.49837 3.13135C2.36186 3.26415 2.25285 3.42253 2.17756 3.59745C2.10227 3.77238 2.06218 3.96042 2.05957 4.15084V21.2908C2.06218 21.4813 2.10227 21.6693 2.17756 21.8442C2.25285 22.0192 2.36186 22.1775 2.49837 22.3103C2.63487 22.4431 2.7962 22.5477 2.97314 22.6182C3.15007 22.6886 3.33915 22.7235 3.52957 22.7208H20.4696C20.66 22.7235 20.8491 22.6886 21.026 22.6182C21.2029 22.5477 21.3643 22.4431 21.5008 22.3103C21.6373 22.1775 21.7463 22.0192 21.8216 21.8442C21.8969 21.6693 21.937 21.4813 21.9396 21.2908V4.15084C21.937 3.96042 21.8969 3.77238 21.8216 3.59745C21.7463 3.42253 21.6373 3.26415 21.5008 3.13135C21.3643 2.99856 21.2029 2.89396 21.026 2.82353C20.8491 2.75309 20.66 2.7182 20.4696 2.72084ZM8.08957 19.4608H5.08957V10.4608H8.08957V19.4608ZM6.58957 9.20084C6.17583 9.20084 5.77904 9.03649 5.48648 8.74393C5.19393 8.45137 5.02957 8.05458 5.02957 7.64084C5.02957 7.22711 5.19393 6.83031 5.48648 6.53776C5.77904 6.2452 6.17583 6.08084 6.58957 6.08084C6.80927 6.05593 7.03175 6.0777 7.24245 6.14473C7.45314 6.21176 7.64731 6.32253 7.81223 6.4698C7.97715 6.61708 8.1091 6.79752 8.19944 6.99932C8.28979 7.20113 8.33649 7.41974 8.33649 7.64084C8.33649 7.86195 8.28979 8.08056 8.19944 8.28236C8.1091 8.48416 7.97715 8.66461 7.81223 8.81188C7.64731 8.95915 7.45314 9.06993 7.24245 9.13696C7.03175 9.20399 6.80927 9.22576 6.58957 9.20084ZM18.9096 19.4608H15.9096V14.6308C15.9096 13.4208 15.4796 12.6308 14.3896 12.6308C14.0522 12.6333 13.7238 12.7391 13.4484 12.934C13.1731 13.1289 12.9641 13.4035 12.8496 13.7208C12.7713 13.9559 12.7374 14.2034 12.7496 14.4508V19.4508H9.74957C9.74957 19.4508 9.74957 11.2708 9.74957 10.4508H12.7496V11.7208C13.0221 11.2479 13.4185 10.8584 13.896 10.594C14.3735 10.3297 14.9141 10.2007 15.4596 10.2208C17.4596 10.2208 18.9096 11.5108 18.9096 14.2808V19.4608Z" fill="#9295A6"/>
</svg>
