<svg width="36" height="38" viewBox="0 0 36 38" fill="none" xmlns="http://www.w3.org/2000/svg">
<path d="M2.80163 14.3489C-0.818694 19.777 1.48218 28.0151 5.48648 33.0089C7.48492 35.5065 9.50857 37.7479 12.2794 37.7479C12.3313 37.7479 12.3847 37.7466 12.438 37.7453C13.7397 37.7005 14.6811 37.3547 15.5914 37.0191C16.6128 36.6425 17.6699 36.2545 19.3273 36.2545C20.9032 36.2545 21.9099 36.631 22.8824 36.9935C23.8416 37.3521 24.829 37.7235 26.2878 37.6992C29.41 37.6493 31.3269 35.2298 33.0169 33.096C34.7811 30.8687 35.6677 28.7054 35.9657 27.878L35.9775 27.8447C36.0339 27.6974 35.9538 27.5373 35.7907 27.4733C35.7907 27.4733 35.77 27.4656 35.7655 27.4643C35.2155 27.2696 30.3929 25.4215 30.3425 20.3841C30.295 16.2906 33.9598 14.1248 34.6951 13.7316L34.7293 13.7124C34.8093 13.6688 34.8642 13.5984 34.8834 13.5177C34.9027 13.437 34.8834 13.3538 34.8286 13.2859C32.2994 10.0877 28.4226 9.60613 26.8615 9.5485C26.6362 9.52929 26.4019 9.51904 26.1677 9.51904C24.3338 9.51904 22.5785 10.1172 21.1671 10.5975C20.1931 10.9292 19.351 11.2161 18.7729 11.2161C18.1205 11.2161 17.274 10.9254 16.2956 10.5911C14.985 10.1415 13.4995 9.63304 11.928 9.63304C11.891 9.63304 11.8539 9.63304 11.8169 9.63432C8.15947 9.68171 4.70519 11.4889 2.80163 14.3489Z" fill="white"/>
<path d="M26.8614 0.748296C24.648 0.826425 21.9928 2.00347 20.4065 3.6096C19.0574 4.95828 17.7395 7.20991 18.0864 9.47821C18.1086 9.62038 18.242 9.72925 18.4081 9.74078C18.5578 9.75102 18.709 9.75615 18.8617 9.75615C21.0262 9.75615 23.3612 8.72127 24.9549 7.05623C26.6331 5.29769 27.4811 3.04092 27.2247 1.01854C27.2054 0.859723 27.0438 0.741892 26.8614 0.748296Z" fill="white"/>
</svg>
