<svg width="24" height="25" viewBox="0 0 24 25" fill="none" xmlns="http://www.w3.org/2000/svg">
<path d="M22 6.52091C21.2483 6.84701 20.4534 7.06258 19.64 7.16091C20.4982 6.64823 21.1413 5.8417 21.45 4.89091C20.6436 5.37098 19.7608 5.70921 18.84 5.89091C18.2245 5.22348 17.405 4.77921 16.5098 4.62776C15.6147 4.47632 14.6945 4.62627 13.8938 5.0541C13.093 5.48193 12.4569 6.16344 12.0852 6.99175C11.7135 7.82005 11.6273 8.7483 11.84 9.63091C10.2094 9.54844 8.61444 9.12387 7.15865 8.38477C5.70287 7.64568 4.41885 6.60861 3.39 5.34091C3.02914 5.97108 2.83952 6.68474 2.84 7.41091C2.83872 8.08529 3.00422 8.74953 3.32176 9.34448C3.63929 9.93942 4.09902 10.4466 4.66 10.8209C4.00798 10.8032 3.36989 10.6282 2.8 10.3109V10.3609C2.80489 11.3058 3.13599 12.22 3.73731 12.9489C4.33864 13.6778 5.17326 14.1766 6.1 14.3609C5.74326 14.4695 5.37287 14.5267 5 14.5309C4.74189 14.5279 4.48442 14.5045 4.23 14.4609C4.49391 15.2737 5.00462 15.9841 5.69107 16.4931C6.37753 17.0021 7.20558 17.2845 8.06 17.3009C6.6172 18.4362 4.83588 19.0558 3 19.0609C2.66574 19.062 2.33174 19.042 2 19.0009C3.87443 20.2112 6.05881 20.8536 8.29 20.8509C9.82969 20.8669 11.3571 20.5759 12.7831 19.995C14.2091 19.4141 15.505 18.5548 16.5952 17.4674C17.6854 16.38 18.548 15.0863 19.1326 13.6618C19.7172 12.2373 20.012 10.7106 20 9.17091C20 9.00091 20 8.82091 20 8.64091C20.7847 8.05572 21.4615 7.33834 22 6.52091Z" fill="#9295A6"/>
</svg>
