<svg width="36" height="36" viewBox="0 0 36 36" fill="none" xmlns="http://www.w3.org/2000/svg">
<g clip-path="url(#clip0_1133_44025)">
<path d="M14.2237 4.14932L1.09867 5.85413C0.732745 5.90137 0.459785 6.21438 0.462793 6.58332V16.7916C0.462793 17.1943 0.789278 17.5208 1.19198 17.5208H14.317C14.7197 17.5208 15.0462 17.1943 15.0462 16.7916V4.87119C15.0459 4.66174 14.9556 4.46254 14.7982 4.32432C14.6397 4.18801 14.4313 4.1245 14.2237 4.14932Z" fill="white"/>
<path d="M35.2145 1.6611C35.0583 1.52028 34.8488 1.45383 34.64 1.47879L17.14 3.7611C16.7741 3.80834 16.5011 4.12135 16.5042 4.49029V16.7914C16.5042 17.1941 16.8307 17.5205 17.2334 17.5205H34.7333C35.1361 17.5205 35.4625 17.1941 35.4625 16.7914V2.20798C35.4622 1.99852 35.3718 1.79932 35.2145 1.6611Z" fill="white"/>
<path d="M14.317 18.979H1.19198C0.789278 18.979 0.462793 19.3055 0.462793 19.7082V29.9165C0.459785 30.2854 0.732744 30.5985 1.0986 30.6457L14.2236 32.3578C14.2547 32.3599 14.2859 32.3599 14.3169 32.3578C14.7196 32.3578 15.0461 32.0313 15.0461 31.6286V19.7082C15.0462 19.3055 14.7197 18.979 14.317 18.979Z" fill="white"/>
<path d="M34.7334 18.979H17.2334C16.8307 18.979 16.5042 19.3055 16.5042 19.7082V32.0093C16.5012 32.3782 16.7741 32.6912 17.14 32.7384L34.64 35.0208C34.6711 35.0229 34.7022 35.0229 34.7333 35.0208C35.136 35.0208 35.4625 34.6943 35.4625 34.2916V19.7082C35.4625 19.3055 35.1361 18.979 34.7334 18.979Z" fill="white"/>
</g>
<defs>
<clipPath id="clip0_1133_44025">
<rect width="35" height="35" fill="white" transform="translate(0.462769 0.748047)"/>
</clipPath>
</defs>
</svg>
