<svg width="36" height="36" viewBox="0 0 36 36" fill="none" xmlns="http://www.w3.org/2000/svg">
<g clip-path="url(#clip0_1133_42581)">
<path d="M28.922 0.75H8.06459C4.1582 0.75 0.995483 3.91271 0.995483 7.81911V28.6809C0.995483 32.5829 4.1582 35.7456 8.06459 35.7456H28.9264C32.8284 35.7456 35.9955 32.5829 35.9955 28.6765V7.81911C35.9911 3.91271 32.8284 0.75 28.922 0.75Z" fill="white"/>
<path d="M18.3443 8.79022L19.053 7.56536C19.4904 6.79981 20.4659 6.54175 21.2315 6.97918C21.997 7.41661 22.2551 8.3921 21.8176 9.15766L14.9891 20.9775H19.9278C21.5289 20.9775 22.4256 22.8585 21.7301 24.1621H7.25074C6.36713 24.1621 5.65845 23.4534 5.65845 22.5698C5.65845 21.6861 6.36713 20.9775 7.25074 20.9775H11.3103L16.5071 11.9704L14.8842 9.15328C14.4468 8.38772 14.7049 7.42099 15.4704 6.97481C16.236 6.53737 17.2027 6.79543 17.6489 7.56099L18.3443 8.79022Z" fill="#080808"/>
<path d="M12.203 25.8026L10.672 28.4578C10.2345 29.2234 9.25904 29.4815 8.49348 29.044C7.72793 28.6066 7.46987 27.6311 7.9073 26.8655L9.04466 24.8971C10.3307 24.499 11.3762 24.8052 12.203 25.8026Z" fill="#080808"/>
<path d="M25.3874 20.9862H29.53C30.4136 20.9862 31.1223 21.6949 31.1223 22.5785C31.1223 23.4621 30.4136 24.1708 29.53 24.1708H27.229L28.7819 26.8654C29.2194 27.631 28.9613 28.5977 28.1957 29.0439C27.4302 29.4813 26.4635 29.2233 26.0173 28.4577C23.4014 23.9214 21.4372 20.5269 20.1336 18.2653C18.7994 15.9643 19.7531 13.6546 20.6936 12.8716C21.7391 14.6651 23.3008 17.3729 25.3874 20.9862Z" fill="#080808"/>
</g>
<defs>
<clipPath id="clip0_1133_42581">
<rect width="35" height="35" fill="white" transform="translate(0.995483 0.748047)"/>
</clipPath>
</defs>
</svg>
