<svg width="24" height="25" viewBox="0 0 24 25" fill="none" xmlns="http://www.w3.org/2000/svg">
<path d="M23 10.4312C23.0494 8.99983 22.7364 7.57919 22.09 6.30118C21.6514 5.77677 21.0427 5.42289 20.37 5.30118C17.5875 5.0487 14.7935 4.94522 12 4.99118C9.21664 4.94313 6.4327 5.04328 3.66 5.29118C3.11182 5.39089 2.60451 5.64802 2.2 6.03118C1.3 6.86118 1.2 8.28118 1.1 9.48118C0.954908 11.6387 0.954908 13.8036 1.1 15.9612C1.12893 16.6366 1.22949 17.307 1.4 17.9612C1.52057 18.4662 1.76452 18.9335 2.11 19.3212C2.51726 19.7246 3.03638 19.9964 3.6 20.1012C5.75591 20.3673 7.92821 20.4776 10.1 20.4312C13.6 20.4812 16.67 20.4312 20.3 20.1512C20.8775 20.0528 21.4112 19.7807 21.83 19.3712C22.11 19.0911 22.3191 18.7483 22.44 18.3712C22.7976 17.2738 22.9733 16.1253 22.96 14.9712C23 14.4112 23 11.0312 23 10.4312ZM9.74 15.5712V9.38118L15.66 12.4912C14 13.4112 11.81 14.4512 9.74 15.5712Z" fill="#9295A6"/>
</svg>
